<svg width="106" height="106" viewBox="0 0 106 106" fill="none" xmlns="http://www.w3.org/2000/svg">
<path d="M3.53402 0.606604C3.14894 0.221731 2.6148 -1.51635e-06 2.07031 -1.51635e-06C1.52582 -1.51635e-06 0.991679 0.221524 0.606601 0.606604C0.221523 0.991684 -1.21307e-06 1.52582 -1.21307e-06 2.07032C-1.21307e-06 2.61481 0.221523 3.14896 0.606601 3.53404C0.991679 3.91891 1.52582 4.14064 2.07031 4.14064C2.6148 4.14064 3.14894 3.91912 3.53402 3.53404C3.9191 3.14896 4.14062 2.61668 4.14062 2.07032C4.14062 1.52582 3.9191 0.991684 3.53402 0.606604Z" transform="translate(36.0686 32.9551)" fill="#006DF0"/>
<path d="M84.5912 46.3917L69.8624 31.6631C73.0467 27.0912 72.6049 20.7421 68.5303 16.6675C66.3145 14.4517 63.3682 13.2312 60.2346 13.2312C57.8028 13.2312 55.4855 13.9691 53.5332 15.3338L38.8061 0.606604C38.3196 0.120079 37.6237 -0.0933718 36.9482 0.0380935C36.2729 0.168938 35.7066 0.626686 35.4373 1.25958L15.3385 48.465L4.43357 59.3702C1.57447 62.2295 0 66.031 0 70.0744C0 74.1179 1.57447 77.9194 4.43377 80.7783C7.29287 83.6376 11.0944 85.2121 15.1377 85.2121C19.1812 85.2121 22.9825 83.6376 25.8416 80.7783L27.613 79.007L39.2489 90.643C39.6533 91.0471 40.183 91.2494 40.7128 91.2494C41.2426 91.2494 41.7726 91.0471 42.1768 90.643L50.129 82.6907C50.9375 81.8822 50.9375 80.5713 50.129 79.7626L39.2007 68.8342L83.9394 49.7606C84.5719 49.4908 85.0295 48.9246 85.1601 48.2494C85.2905 47.5741 85.0775 46.8781 84.5912 46.3917ZM60.2348 17.3723C62.2625 17.3723 64.1688 18.1619 65.6027 19.5958C68.055 22.0479 68.4734 25.7736 66.8621 28.6628L56.5335 18.3341C57.6521 17.7075 58.9173 17.3723 60.2348 17.3723ZM22.9136 77.8503C20.8364 79.9274 18.0748 81.0715 15.1375 81.0715C12.2001 81.0715 9.43854 79.9276 7.3614 77.8503C5.28446 75.7731 4.14062 73.0117 4.14062 70.0744C4.14062 67.137 5.28446 64.3754 7.3616 62.2982L17.0863 52.5733L17.3827 52.8698L32.6376 68.1266L22.9136 77.8503ZM45.7373 81.2265L40.7126 86.2508L30.5408 76.0789L35.5652 71.0546L45.7373 81.2265ZM71.3886 50.6098C71.3513 50.5657 71.3132 50.522 71.2718 50.4806L45.0474 24.2561C44.239 23.4478 42.9281 23.4478 42.1194 24.2561C41.311 25.0645 41.311 26.3755 42.1194 27.1841L67.2917 52.3565L36.0459 65.6778L19.5385 49.1701L38.0461 5.7027L79.4964 47.153L71.3886 50.6098Z" transform="translate(0 14.7505)" fill="#006DF0"/>
<path d="M9.09034 0.606113C8.28168 -0.201933 6.97096 -0.20214 6.16251 0.606113L0.606418 6.16223C-0.202037 6.97069 -0.202245 8.28162 0.606418 9.09029C1.01075 9.49462 1.54034 9.69668 2.07034 9.69668C2.60013 9.69668 3.13012 9.49441 3.53425 9.09029L9.09034 3.53417C9.89879 2.7255 9.899 1.41457 9.09034 0.606113Z" transform="translate(76.8428 13.5254)" fill="#006DF0"/>
<path d="M3.53402 0.606604C3.14894 0.221731 2.61687 -1.89544e-07 2.07031 -1.89544e-07C1.52582 -1.89544e-07 0.991679 0.221524 0.606601 0.606604C0.221524 0.991683 2.3756e-06 1.52583 2.3756e-06 2.07032C2.3756e-06 2.61481 0.221524 3.14896 0.606601 3.53404C0.993749 3.91912 1.52582 4.14064 2.07031 4.14064C2.6148 4.14064 3.14894 3.91912 3.53402 3.53404C3.92116 3.14896 4.14062 2.61481 4.14062 2.07032C4.14062 1.52583 3.92116 0.991683 3.53402 0.606604Z" transform="translate(71.7605 24.1621)" fill="#006DF0"/>
<path d="M2.07031 -1.57953e-08C0.926877 -1.57953e-08 -2.02179e-07 0.92709 -2.02179e-07 2.07032V9.67916C-2.02179e-07 10.8224 0.926877 11.7493 2.07031 11.7493C3.21374 11.7493 4.14062 10.8222 4.14062 9.67896V2.07032C4.14062 0.92709 3.21374 -1.57953e-08 2.07031 -1.57953e-08Z" transform="translate(60.3184 5.9165)" fill="#006DF0"/>
<path d="M9.93355 5.30722e-07H2.07031C0.926878 5.30722e-07 1.51634e-07 0.92709 1.51634e-07 2.07032C1.51634e-07 3.21355 0.926878 4.14064 2.07031 4.14064H9.93355C11.077 4.14064 12.0039 3.21355 12.0039 2.07032C12.0039 0.92709 11.077 5.30722e-07 9.93355 5.30722e-07Z" transform="translate(82.1047 35.2803)" fill="#006DF0"/>
<path d="M6.21093 1.81962e-06C2.78622 1.81962e-06 -7.5817e-07 2.78624 -7.5817e-07 6.21096C-7.5817e-07 9.63569 2.78622 12.4219 6.21093 12.4219C9.63563 12.4219 12.4219 9.63569 12.4219 6.21096C12.4219 2.78624 9.63563 1.81962e-06 6.21093 1.81962e-06ZM6.21093 8.28108C5.06936 8.28108 4.14062 7.35233 4.14062 6.21076C4.14062 5.06918 5.06936 4.14044 6.21093 4.14044C7.35249 4.14044 8.28124 5.06918 8.28124 6.21076C8.28124 7.35233 7.35249 8.28108 6.21093 8.28108Z" transform="translate(82.8569 82.5503)" fill="#006DF0"/>
<path d="M33.1802 20.3012L30.9473 18.2842C30.9732 17.9358 30.9863 17.5868 30.9863 17.2387C30.9863 16.8907 30.9732 16.5417 30.9473 16.1932L33.1802 14.1763C33.9052 13.5215 34.0737 12.449 33.5845 11.6033L30.1314 5.63314C29.643 4.78844 28.6311 4.39964 27.7028 4.69963L24.8451 5.62299C24.2675 5.22881 23.6623 4.87871 23.0334 4.5752L22.4038 1.63659C22.1993 0.681966 21.3556 2.17343e-06 20.3795 2.17343e-06H13.4833C12.5069 2.17343e-06 11.6632 0.681966 11.4589 1.63659L10.8293 4.5752C10.2004 4.87871 9.59521 5.2286 9.01759 5.62299L6.15995 4.69963C5.231 4.39964 4.21965 4.78886 3.73127 5.63314L0.278201 11.6033C-0.210806 12.449 -0.042282 13.5215 0.682533 14.1763L2.91536 16.1932C2.88948 16.5417 2.87644 16.8907 2.87644 17.2387C2.87644 17.5868 2.88948 17.9358 2.91536 18.2842L0.682533 20.3012C-0.042282 20.956 -0.210806 22.0284 0.278201 22.8741L3.73127 28.8445C4.21965 29.6892 5.23162 30.0778 6.15995 29.778L9.01759 28.8545C9.59542 29.2489 10.2006 29.599 10.8293 29.9025L11.4589 32.8409C11.6635 33.7955 12.5071 34.4775 13.4833 34.4775H20.3797C21.356 34.4775 22.1997 33.7955 22.404 32.8409L23.0336 29.9025C23.6623 29.599 24.2675 29.2491 24.8453 28.8545L27.703 29.778C28.6317 30.0778 29.6433 29.6888 30.1316 28.8445L33.5847 22.8741C34.0735 22.0284 33.905 20.956 33.1802 20.3012ZM27.3848 25.3233L25.1043 24.5863C24.4381 24.3712 23.7087 24.5072 23.1646 24.9474C22.3556 25.6026 21.4552 26.1235 20.489 26.4949C19.836 26.7461 19.3542 27.3098 19.2077 27.9936L18.7058 30.3364H15.1569L14.655 27.9936C14.5085 27.3096 14.0265 26.7461 13.3737 26.4949C12.4075 26.1235 11.5071 25.6026 10.6981 24.9474C10.1542 24.5068 9.42441 24.371 8.75839 24.5863L6.47795 25.3233L4.701 22.2508L6.48002 20.6438C6.99842 20.1755 7.24562 19.4774 7.13776 18.7871C7.05784 18.2766 7.01726 17.7557 7.01726 17.2385C7.01726 16.7214 7.05784 16.2003 7.13776 15.6899C7.24562 14.9997 6.99842 14.3016 6.48002 13.8333L4.701 12.2263L6.47795 9.15372L8.75839 9.89075C9.42441 10.1061 10.1542 9.97005 10.6979 9.52969C11.5067 8.87464 12.4069 8.35395 13.3737 7.98191C14.0265 7.73078 14.5083 7.16703 14.6548 6.48341L15.1567 4.14064H18.7056L19.2075 6.48341C19.354 7.16724 19.8358 7.73078 20.4886 7.98191C21.4554 8.35395 22.3558 8.87464 23.1644 9.52969C23.7083 9.97005 24.4377 10.1056 25.1039 9.89075L27.3843 9.15372L29.1613 12.2263L27.3823 13.8333C26.8643 14.3016 26.6171 14.9997 26.7249 15.6899C26.8049 16.2005 26.8454 16.7214 26.8454 17.2385C26.8454 17.7557 26.8049 18.2768 26.7249 18.7871C26.6171 19.4774 26.8643 20.1755 27.3827 20.6438L29.1617 22.2508L27.3848 25.3233Z" transform="translate(72.1365 71.5225)" fill="#006DF0"/>
<path d="M15.9817 15.481L9.97992 1.26497C9.65633 0.498326 8.9048 0 8.07254 0C7.24027 0 6.48896 0.498326 6.16517 1.26497L0.163545 15.4812C-0.281157 16.5346 0.212198 17.7491 1.26578 18.1938C1.52871 18.3047 1.80158 18.3573 2.0701 18.3573C2.87731 18.3573 3.64456 17.882 3.9783 17.0917L4.7292 15.3131H11.4161L12.167 17.0917C12.6117 18.1449 13.8261 18.6385 14.8795 18.1938C15.9329 17.7489 16.4264 16.5344 15.9817 15.481ZM6.47716 11.1725L8.07254 7.39332L9.66792 11.1725H6.47716Z" transform="translate(89.8547)" fill="#006DF0"/>
<path d="M22.3097 1.42992e-08H5.01822C2.25125 -0.000207018 0 2.25085 0 5.01804V20.2411C0 23.0081 2.25125 25.2594 5.01822 25.2594H22.3099C25.0768 25.2594 27.3281 23.0081 27.3281 20.2411V5.01804C27.3279 2.25106 25.0766 1.42992e-08 22.3097 1.42992e-08ZM23.1873 20.2409C23.1873 20.7249 22.7937 21.1185 22.3097 21.1185H5.01822C4.53439 21.1185 4.14062 20.7249 4.14062 20.2409V5.01804C4.14062 4.53421 4.53418 4.14064 5.01822 4.14064H22.3099C22.7937 4.14064 23.1875 4.53421 23.1875 5.01804V20.2409H23.1873Z" fill="#006DF0"/>
<path d="M9.76565 2.41775L6.61319 0.597727C5.23291 -0.199139 3.58474 -0.199346 2.20446 0.597727C0.82419 1.3948 1.38998e-07 2.82187 1.38998e-07 4.41581V8.05585C0.00020717 9.64979 0.824397 11.0769 2.20467 11.8739C2.89471 12.2725 3.65182 12.4716 4.40893 12.4716C5.16604 12.4716 5.92315 12.2725 6.61319 11.8739L9.76565 10.0539C11.1459 9.25684 11.9701 7.82956 11.9701 6.23583C11.9699 4.6421 11.1459 3.21461 9.76565 2.41775ZM7.69555 6.46791L4.54309 8.28793C4.50644 8.30926 4.40893 8.36536 4.27498 8.28793C4.14082 8.2105 4.14082 8.09808 4.14082 8.05564V4.41561C4.14082 4.37316 4.14082 4.26075 4.27498 4.18332C4.32612 4.15371 4.37187 4.14377 4.411 4.14377C4.47456 4.14377 4.52052 4.17027 4.54309 4.18332L7.69555 6.00333C7.73219 6.02466 7.8297 6.08076 7.8297 6.23562C7.8297 6.39048 7.73219 6.4468 7.69555 6.46791Z" transform="translate(7.55054 6.39404)" fill="#006DF0"/>
<path d="M3.56445 -1.21308e-06H2.07031C0.926877 -1.21308e-06 3.79085e-08 0.927088 3.79085e-08 2.07032C3.79085e-08 3.21355 0.926877 4.14064 2.07031 4.14064H3.56445C4.70788 4.14064 5.63476 3.21355 5.63476 2.07032C5.63476 0.927088 4.70788 -1.21308e-06 3.56445 -1.21308e-06Z" transform="translate(10.1099 45.126)" fill="#006DF0"/>
<path d="M2.07031 0C0.926878 0 -7.8976e-08 0.92709 -7.8976e-08 2.07032V3.38746C-7.8976e-08 4.53069 0.926878 5.45778 2.07031 5.45778C3.21374 5.45778 4.14062 4.53069 4.14062 3.38746V2.07032C4.14062 0.92709 3.21374 0 2.07031 0Z" transform="translate(5.802 39.3872)" fill="#006DF0"/>
<path d="M3.38765 -1.21308e-06H2.07031C0.926877 -1.21308e-06 0 0.927088 0 2.07032C0 3.21355 0.926877 4.14064 2.07031 4.14064H3.38765C4.53108 4.14064 5.45796 3.21355 5.45796 2.07032C5.45796 0.927088 4.53108 -1.21308e-06 3.38765 -1.21308e-06Z" transform="translate(0 45.126)" fill="#006DF0"/>
<path d="M2.07031 0C0.926878 0 -7.8976e-08 0.92709 -7.8976e-08 2.07032V3.58186C-7.8976e-08 4.72509 0.926878 5.65218 2.07031 5.65218C3.21374 5.65218 4.14062 4.72509 4.14062 3.58186V2.07032C4.14062 0.92709 3.21374 0 2.07031 0Z" transform="translate(5.802 49.4805)" fill="#006DF0"/>
</svg>
