<svg width="26" height="26" viewBox="0 0 26 26" fill="none" xmlns="http://www.w3.org/2000/svg">
<path d="M25.8441 12.1966L23.2441 10.0302C23.1684 9.96903 23.0742 9.93522 22.9768 9.9343L19.3702 8.36801C19.4451 8.25194 19.5185 8.13557 19.5833 8.01828C21.232 5.23498 21.1943 2.39882 19.4898 0.960223C18.4877 0.170071 17.1958 -0.154225 15.9393 0.069081C14.7868 0.265426 13.752 0.892338 13.0444 1.82293C12.3368 0.892389 11.302 0.265426 10.1495 0.069081C8.89309 -0.154377 7.60103 0.169919 6.59908 0.960173C4.89453 2.39877 4.85691 5.23498 6.4992 8.0068C6.55993 8.11668 6.62909 8.22544 6.69861 8.33415L2.86037 10.0048C2.8268 10.0202 2.79532 10.0398 2.76678 10.0632C2.76338 10.0659 2.75921 10.0663 2.75586 10.0691L0.1559 12.2355C0.0404256 12.3318 -0.0169056 12.481 0.00437144 12.6298C0.0256485 12.7786 0.122538 12.9058 0.260407 12.9658L2.60012 13.9829V21.234C2.60215 21.2478 2.60489 21.2614 2.60835 21.2749C2.61063 21.3167 2.61896 21.3579 2.63302 21.3973C2.64577 21.4226 2.66106 21.4465 2.67863 21.4688C2.69152 21.4926 2.70666 21.5151 2.72387 21.536C2.75541 21.5659 2.79126 21.5909 2.83026 21.6101C2.84143 21.6162 2.84889 21.6262 2.86072 21.6313L2.86367 21.6326L2.8656 21.6334L12.8273 25.9641L12.8288 25.9644C12.8356 25.9673 12.8435 25.9673 12.8504 25.9698C12.8973 25.9883 12.9472 25.9984 12.9976 25.9996L12.9995 26H12.9998H13H13.0002H13.0004L13.0023 25.9996C13.0527 25.9984 13.1025 25.9883 13.1495 25.9698C13.1565 25.9673 13.1643 25.9673 13.1711 25.9644L13.1726 25.9641L23.1392 21.6313C23.3045 21.5595 23.4081 21.3929 23.3994 21.2128L23.3978 21.2051C23.3979 21.2016 23.3999 21.1986 23.3999 21.1951V13.9439L25.7392 12.9269C25.8771 12.867 25.9742 12.7399 25.9956 12.591C26.0169 12.4422 25.9596 12.2929 25.8441 12.1966ZM7.15808 1.62278C7.78633 1.12316 8.56866 0.857253 9.37129 0.870505C10.7432 0.86888 12.0075 1.61318 12.6716 2.81349C12.7555 2.93697 12.8952 3.01085 13.0444 3.01085C13.1937 3.01085 13.3333 2.93692 13.4173 2.81349C13.9791 1.81669 14.9574 1.12336 16.0841 0.923412C17.0894 0.73971 18.1252 0.994191 18.9308 1.62283C20.3002 2.77835 20.2625 5.17069 18.8313 7.58797C17.6854 9.66043 14.5518 11.6381 13.0445 12.5033C11.5372 11.638 8.40357 9.65997 7.25131 7.57654C5.82636 5.17064 5.78873 2.77835 7.15808 1.62278ZM1.25063 12.4517L3.10594 10.906L12.1824 14.8519L10.3276 16.3973L1.25063 12.4517ZM12.5667 24.906L3.46679 20.95V14.3597L10.2274 17.2986C10.3776 17.3639 10.5517 17.339 10.6776 17.2342L12.5667 15.6602V24.906ZM12.9996 14.2624L4.11973 10.4017L7.22282 9.05129C8.7408 10.9062 11.2921 12.5128 12.8319 13.3792C12.9638 13.4537 13.125 13.4537 13.2568 13.3792C14.7898 12.5167 17.3251 10.9206 18.8417 9.08307L21.8793 10.4021L12.9996 14.2624ZM22.5331 20.9498L13.4333 24.906V15.6212L15.3227 17.1953C15.4484 17.3001 15.6225 17.3249 15.7725 17.2596L22.5331 14.3206V20.9498H22.5331ZM15.6723 16.3584L13.8483 14.8388L22.9249 10.8926L24.7489 12.4124L15.6723 16.3584Z" fill="#646464"/>
<path d="M0.43331 1.29978C0.548277 1.29983 0.658521 1.25423 0.73977 1.17294C0.821019 1.09165 0.866671 0.981419 0.86662 0.866517V0.433258C0.86662 0.193958 0.672638 3.09903e-09 0.43331 3.09903e-09C0.193981 3.09903e-09 2.46926e-07 0.193958 2.46926e-07 0.433258V0.866517C-5.05336e-05 0.98147 0.0455504 1.0917 0.12685 1.17294C0.20815 1.25418 0.318343 1.29988 0.43331 1.29978Z" transform="translate(8.66699 2.16992)" fill="#646464"/>
<path d="M0.43331 6.4054e-08C0.318343 -5.07104e-05 0.208099 0.0455448 0.12685 0.126835C0.0455504 0.208125 -5.05336e-05 0.318356 2.46926e-07 0.433258V0.866517C2.46926e-07 1.10582 0.193981 1.29978 0.43331 1.29978C0.672638 1.29978 0.86662 1.10582 0.86662 0.866517V0.433258C0.866671 0.318305 0.82107 0.208074 0.73977 0.126835C0.658521 0.0455448 0.548277 -5.07104e-05 0.43331 6.4054e-08Z" transform="translate(8.66699 4.33643)" fill="#646464"/>
<path d="M0.43331 0.866517H0.86662C1.10595 0.866517 1.29993 0.672558 1.29993 0.433259C1.29993 0.193959 1.10595 -7.43766e-08 0.86662 -7.43766e-08H0.43331C0.193982 -7.43766e-08 -1.05379e-07 0.193959 -1.05379e-07 0.433259C-1.05379e-07 0.672558 0.193982 0.866517 0.43331 0.866517Z" transform="translate(7.3667 3.46973)" fill="#646464"/>
<path d="M0.43331 0.866517H0.86662C1.10595 0.866517 1.29993 0.672558 1.29993 0.433259C1.29993 0.193959 1.1059 -7.43766e-08 0.86662 -7.43766e-08H0.43331C0.193981 -7.43766e-08 2.72747e-07 0.193959 2.72747e-07 0.433259C2.72747e-07 0.672558 0.193981 0.866517 0.43331 0.866517Z" transform="translate(9.5332 3.46973)" fill="#646464"/>
</svg>
