<svg width="21" height="16" viewBox="0 0 21 16" fill="none" xmlns="http://www.w3.org/2000/svg">
<path d="M18.4364 0H2.56797C1.15146 0 0 1.1528 0 2.57096V13.429C0 14.8472 1.15146 16 2.56797 16H18.432C19.8485 16 21 14.8472 21 13.429V2.57531C21.0043 1.15715 19.8529 0 18.4364 0ZM19.8311 13.429C19.8311 14.199 19.2055 14.8254 18.4364 14.8254H2.56797C1.79888 14.8254 1.17318 14.199 1.17318 13.429V2.57531C1.17318 1.80533 1.79888 1.1789 2.56797 1.1789H18.432C19.2011 1.1789 19.8268 1.80533 19.8268 2.57531V13.429H19.8311Z" fill="white"/>
<path d="M10.8214 5.63992L15.9574 1.02872C16.1963 0.811207 16.2181 0.441441 16.0008 0.19783C15.7836 -0.0414305 15.4142 -0.0631814 15.1709 0.154328L8.08835 6.51866L6.7066 5.2832C6.70225 5.27885 6.69791 5.2745 6.69791 5.27015C6.66749 5.2397 6.63707 5.2136 6.60231 5.1875L0.979722 0.149978C0.736395 -0.0675316 0.36706 -0.0457807 0.149803 0.19783C-0.0674528 0.441441 -0.0457272 0.811207 0.1976 1.02872L5.39437 5.67907L0.219325 10.5295C-0.0153114 10.7514 -0.0283467 11.1212 0.193255 11.3604C0.310573 11.4822 0.466997 11.5475 0.623422 11.5475C0.766811 11.5475 0.9102 11.4953 1.02317 11.3909L6.27643 6.4708L7.70163 7.74541C7.8146 7.84547 7.95365 7.89332 8.09269 7.89332C8.23174 7.89332 8.37512 7.84112 8.48375 7.74106L9.94806 6.4273L15.1709 11.3952C15.2839 11.504 15.4316 11.5562 15.575 11.5562C15.7314 11.5562 15.8835 11.4953 16.0008 11.3735C16.2224 11.1386 16.2137 10.7644 15.9791 10.5426L10.8214 5.63992Z" transform="translate(2.42236 2.22522)" fill="white"/>
</svg>
