<svg width="102" height="102" viewBox="0 0 102 102" fill="none" xmlns="http://www.w3.org/2000/svg">
<path d="M3.40046 0.583709C3.03012 0.213163 2.51613 0 1.99219 0C1.46804 0 0.954058 0.213163 0.583711 0.583709C0.213164 0.954256 1.09434e-06 1.46824 1.09434e-06 1.99219C1.09434e-06 2.51613 0.212964 3.03012 0.583711 3.40067C0.954058 3.77121 1.46804 3.98438 1.99219 3.98438C2.51613 3.98438 3.03012 3.77121 3.40046 3.40067C3.77101 3.03012 3.98437 2.51613 3.98437 1.99219C3.98437 1.46824 3.77121 0.954256 3.40046 0.583709Z" transform="translate(48.9563 98.0156)" fill="#006DF0"/>
<path d="M91.3537 44.1536L84.7082 42.5661V39.93C88.3969 37.5986 90.8537 33.4869 90.8537 28.81V21.3857C90.8537 14.1356 84.9552 8.2373 77.7049 8.2373C73.7938 8.2373 70.2782 9.95576 67.8675 12.6749C65.7561 5.36297 59.0032 -7.05242e-07 51.0207 -7.05242e-07H51.0205C43.0251 -7.05242e-07 36.263 5.3799 34.1634 12.7098C31.7521 9.9705 28.2235 8.2373 24.2957 8.2373C17.0454 8.2373 11.1469 14.1358 11.1469 21.3857V28.81C11.1469 33.4871 13.6037 37.5988 17.2924 39.93V42.5661L10.6468 44.1536C4.37803 45.651 0 51.1978 0 57.6423V71.034C0 72.1343 0.892102 73.0262 1.99219 73.0262H17.9223V79.0028C17.9223 80.1031 18.8144 80.995 19.9145 80.995H41.7696C42.8697 80.995 43.7618 80.1031 43.7618 79.0028C43.7618 77.9025 42.8697 77.0106 41.7696 77.0106H32.8759V68.2426C32.8759 67.1423 31.9838 66.2504 30.8837 66.2504C29.7836 66.2504 28.8915 67.1423 28.8915 68.2426V77.0106H21.9065V68.0222C21.9065 61.2659 26.4953 55.4477 33.0657 53.8733L42.8639 51.5253L49.1684 65.8683C49.4863 66.5917 50.2017 67.0588 50.9918 67.0588H50.992C51.7821 67.0588 52.4977 66.5919 52.8157 65.8685L59.1138 51.5464L68.8835 53.8803C75.4599 55.4511 80.0527 61.2705 80.0527 68.0316V70.2547C79.9509 70.4941 79.8943 70.7573 79.8943 71.0338C79.8943 71.3103 79.9509 71.5737 80.0527 71.813V77.0106H73.1085V68.2426C73.1085 67.1423 72.2164 66.2504 71.1163 66.2504C70.0162 66.2504 69.1241 67.1423 69.1241 68.2426V77.0106H59.3674C58.2673 77.0106 57.3752 77.9025 57.3752 79.0028C57.3752 80.1031 58.2673 80.995 59.3674 80.995H82.0449C83.1449 80.995 84.037 80.1031 84.037 79.0028V73.0262H100.008C101.108 73.0262 102 72.1343 102 71.034V57.6423C102 51.1978 97.622 45.651 91.3537 44.1536ZM77.7047 12.2217C82.7579 12.2217 86.8691 16.3328 86.8691 21.3857V21.879V22.0792H81.1709C76.8666 22.0792 72.637 20.949 68.9094 18.8068C70.0262 15.0054 73.5464 12.2217 77.7047 12.2217ZM68.5402 28.4849C68.5472 28.2815 68.5522 23.1283 68.5522 23.1283C72.4686 25.0543 76.7863 26.0638 81.1711 26.0638H86.8693V28.8102C86.8691 33.8632 82.7579 37.9741 77.7047 37.9741C72.6515 37.9741 68.5402 33.863 68.5402 28.81V28.4849ZM37.473 17.5314C37.473 10.0615 43.5504 3.98457 51.0205 3.98457C58.4904 3.98457 64.5678 10.0617 64.5678 17.5314V17.7912L57.1738 13.4473C56.3349 12.9542 55.2627 13.1397 54.6377 13.8853C51.765 17.3135 47.5519 19.2798 43.0789 19.2798H37.473V17.5314ZM15.1309 21.8792V21.3857C15.1309 16.3326 19.2421 12.2217 24.2953 12.2217C28.4536 12.2217 31.9738 15.0054 33.0904 18.807C29.3629 20.949 25.1334 22.0794 20.8289 22.0794H15.1309V21.8792ZM15.1309 28.81V26.0636H20.8291C25.2183 26.0636 29.5404 25.0524 33.4598 23.1225V28.81C33.4598 33.8632 29.3485 37.9741 24.2953 37.9741C19.2421 37.9741 15.1309 33.863 15.1309 28.81ZM17.9223 68.0222V69.0418H11.9531V60.1908C11.9531 59.0905 11.061 58.1986 9.96094 58.1986C8.86085 58.1986 7.96875 59.0905 7.96875 60.1908V69.0418H3.98438V57.6423C3.98438 53.0494 7.10454 49.0963 11.572 48.029L17.8869 46.5204L22.0083 56.3926C19.4306 59.5949 17.9223 63.6538 17.9223 68.0222ZM24.2957 51.5293L21.2702 44.2819C21.2736 44.2343 21.2764 44.1867 21.2764 44.1385V41.6048C22.2464 41.8335 23.2564 41.9585 24.2953 41.9585C25.3297 41.9585 26.3349 41.8345 27.3011 41.6078V44.0124C27.2989 44.0499 27.2979 44.0873 27.2979 44.1248C27.2979 44.1875 27.3039 44.2499 27.3099 44.3122L24.2957 51.5293ZM32.1374 49.9987C30.961 50.2806 29.8368 50.6729 28.7694 51.1566L30.7098 46.5104L37.0256 48.0239C37.5155 48.1412 37.9928 48.2964 38.4548 48.4849L32.1374 49.9987ZM42.0258 45.8464C40.7751 45.0706 39.4029 44.4963 37.9542 44.1493L31.2855 42.5513V39.9386C32.944 38.8933 34.3527 37.4884 35.4028 35.8333C36.9047 38.7676 39.2098 41.2247 42.0258 42.9149V45.8464V45.8464ZM55.9671 48.8038L50.9924 60.1166L46.0102 48.7817V44.673C47.5983 45.1476 49.2799 45.4035 51.0203 45.4035C52.7376 45.4035 54.3977 45.1541 55.9671 44.6917V48.8038ZM51.0205 41.4194C43.5502 41.4192 37.473 35.342 37.473 27.8723V23.2644H43.0787C48.1635 23.2644 52.9828 21.2546 56.5433 17.698L64.556 22.4053V28.3399C64.3082 35.5936 58.3338 41.4194 51.0205 41.4194ZM59.9515 42.9524H59.9517C62.785 41.268 65.1063 38.809 66.6197 35.8683C67.6676 37.5081 69.0679 38.9004 70.7145 39.9386V42.5513L64.0458 44.1493C62.5884 44.4985 61.2084 45.078 59.9515 45.8609V42.9524V42.9524ZM69.809 50.0053L63.5087 48.5C63.9821 48.3048 64.4716 48.1444 64.9744 48.0239L71.2749 46.5142L73.2233 51.1811C72.1421 50.6886 71.0024 50.2904 69.809 50.0053ZM74.6859 44.3419C74.6939 44.2696 74.6997 44.1969 74.6997 44.124C74.6997 44.1054 74.6995 44.0867 74.6989 44.0682V41.6078C75.6651 41.8347 76.6703 41.9585 77.7047 41.9585C78.7436 41.9585 79.7536 41.8335 80.7236 41.6046V44.1383C80.7236 44.1746 80.7262 44.2102 80.7282 44.2461L77.6865 51.5293L74.6859 44.3419ZM98.0156 69.0418H94.0312V60.1908C94.0312 59.0905 93.1391 58.1986 92.0391 58.1986C90.939 58.1986 90.0469 59.0905 90.0469 60.1908V69.0418H84.037V68.0318C84.037 63.6691 82.5337 59.6158 79.9634 56.4164L84.0978 46.5168L90.428 48.029C94.8955 49.0963 98.0156 53.0494 98.0156 57.6423V69.0418V69.0418Z" transform="translate(0 21.0049)" fill="#006DF0"/>
<path d="M3.40047 0.583709C3.03012 0.213163 2.51613 0 1.99219 0C1.46824 0 0.954258 0.213163 0.583711 0.583709C0.213164 0.954256 1.33753e-06 1.46824 1.33753e-06 1.99219C1.33753e-06 2.51613 0.212965 3.03012 0.583711 3.40067C0.954457 3.77121 1.46824 3.98438 1.99219 3.98438C2.51813 3.98438 3.03012 3.77121 3.40047 3.40067C3.77301 3.03012 3.98438 2.51613 3.98438 1.99219C3.98438 1.46824 3.77301 0.954256 3.40047 0.583709Z" transform="translate(42.3257 46.0693)" fill="#006DF0"/>
<path d="M3.40046 0.583709C3.03011 0.213163 2.51613 0 1.99218 0C1.46824 0 0.95426 0.213163 0.583713 0.583709C0.213166 0.954256 -2.67506e-06 1.46824 -2.67506e-06 1.99219C-2.67506e-06 2.51613 0.212967 3.03012 0.583713 3.40067C0.954459 3.77121 1.46824 3.98438 1.99218 3.98438C2.51613 3.98438 3.03011 3.77121 3.40046 3.40067C3.773 3.03012 3.98437 2.51613 3.98437 1.99219C3.98437 1.46824 3.773 0.954256 3.40046 0.583709Z" transform="translate(55.6477 46.0693)" fill="#006DF0"/>
<path d="M8.35519 0.583464C7.57704 -0.194485 6.31598 -0.194485 5.53763 0.583464C4.94854 1.17255 3.9901 1.17255 3.40101 0.583464C2.62286 -0.194485 1.36181 -0.194485 0.58346 0.583464C-0.194489 1.36141 -0.194489 2.62286 0.58346 3.40101C1.65486 4.47221 3.06194 5.00791 4.46922 5.00791C5.8765 5.00791 7.28359 4.47241 8.35499 3.40101C9.13313 2.62286 9.13314 1.36141 8.35519 0.583464Z" transform="translate(46.4792 52.7759)" fill="#006DF0"/>
<path d="M3.35863 0H1.99219C0.892101 0 -9.72748e-07 0.891902 -9.72748e-07 1.99219C-9.72748e-07 3.09247 0.892101 3.98438 1.99219 3.98438H3.35863C4.45872 3.98438 5.35082 3.09247 5.35082 1.99219C5.35082 0.891902 4.45872 0 3.35863 0Z" transform="translate(79.0144 10.7578)" fill="#006DF0"/>
<path d="M3.35863 0H1.99219C0.8921 0 -1.75095e-06 0.891902 -1.75095e-06 1.99219C-1.75095e-06 3.09247 0.891901 3.98438 1.99219 3.98438H3.35863C4.45871 3.98438 5.35082 3.09247 5.35082 1.99219C5.35082 0.891902 4.45871 0 3.35863 0Z" transform="translate(88.6802 10.7578)" fill="#006DF0"/>
<path d="M1.99219 2.55346e-07C0.892103 2.55346e-07 9.2411e-07 0.891903 9.2411e-07 1.99219V3.35863C9.2411e-07 4.45891 0.891903 5.35082 1.99219 5.35082C3.09227 5.35082 3.98438 4.45891 3.98438 3.35863V1.99219C3.98438 0.891903 3.09227 2.55346e-07 1.99219 2.55346e-07Z" transform="translate(84.5305 14.9077)" fill="#006DF0"/>
<path d="M1.99219 -1.06394e-07C0.892103 -1.06394e-07 9.2411e-07 0.891903 9.2411e-07 1.99219V3.35863C9.2411e-07 4.45891 0.891903 5.35082 1.99219 5.35082C3.09227 5.35082 3.98438 4.45891 3.98438 3.35863V1.99219C3.98438 0.891903 3.09227 -1.06394e-07 1.99219 -1.06394e-07Z" transform="translate(84.5305 5.2417)" fill="#006DF0"/>
<path d="M3.35843 0H1.99219C0.892102 0 4.86374e-08 0.891902 4.86374e-08 1.99219C4.86374e-08 3.09247 0.892102 3.98438 1.99219 3.98438H3.35843C4.45851 3.98438 5.35062 3.09247 5.35062 1.99219C5.35062 0.891902 4.45851 0 3.35843 0Z" transform="translate(7.85767 10.7578)" fill="#006DF0"/>
<path d="M3.35843 0H1.99219C0.892101 0 -7.29561e-07 0.891902 -7.29561e-07 1.99219C-7.29561e-07 3.09247 0.891902 3.98438 1.99219 3.98438H3.35843C4.45851 3.98438 5.35062 3.09247 5.35062 1.99219C5.35062 0.891902 4.45851 0 3.35843 0Z" transform="translate(17.5242 10.7578)" fill="#006DF0"/>
<path d="M1.99219 2.55346e-07C0.892102 2.55346e-07 5.35011e-07 0.891903 5.35011e-07 1.99219V3.35863C5.35011e-07 4.45891 0.891903 5.35082 1.99219 5.35082C3.09227 5.35082 3.98438 4.45891 3.98438 3.35863V1.99219C3.98438 0.891903 3.09227 2.55346e-07 1.99219 2.55346e-07Z" transform="translate(13.3745 14.9077)" fill="#006DF0"/>
<path d="M1.99219 -1.06394e-07C0.892102 -1.06394e-07 5.35011e-07 0.891903 5.35011e-07 1.99219V3.35863C5.35011e-07 4.45891 0.891903 5.35082 1.99219 5.35082C3.09227 5.35082 3.98438 4.45891 3.98438 3.35863V1.99219C3.98438 0.891903 3.09227 -1.06394e-07 1.99219 -1.06394e-07Z" transform="translate(13.3745 5.2417)" fill="#006DF0"/>
<path d="M1.99219 3.58701e-07C0.892102 3.58701e-07 0 0.891903 0 1.99219V7.23363C0 8.33392 0.892102 9.22582 1.99219 9.22582C3.09227 9.22582 3.98438 8.33392 3.98438 7.23363V1.99219C3.98438 0.891903 3.09227 3.58701e-07 1.99219 3.58701e-07Z" transform="translate(49.0078 7.58789)" fill="#006DF0"/>
<path d="M3.40046 0.583711C3.03012 0.213164 2.51613 0 1.99219 0C1.46824 0 0.954256 0.213164 0.583709 0.583711C0.212963 0.954258 0 1.46824 0 1.99219C0 2.51613 0.212963 3.03012 0.583709 3.40066C0.954456 3.77121 1.46824 3.98438 1.99219 3.98438C2.51613 3.98438 3.03012 3.77121 3.40046 3.40066C3.77121 3.03012 3.98438 2.51613 3.98438 1.99219C3.98438 1.46824 3.77121 0.954258 3.40046 0.583711Z" transform="translate(49.0078)" fill="#006DF0"/>
<path d="M6.31638 3.49883L3.40101 0.583462C2.62286 -0.194487 1.36181 -0.194487 0.583461 0.583462C-0.194489 1.36141 -0.194489 2.62286 0.583461 3.40101L3.49903 6.31638C3.8881 6.70545 4.3979 6.89989 4.9077 6.89989C5.41751 6.89989 5.92731 6.70545 6.31638 6.31638C7.09433 5.53843 7.09433 4.27698 6.31638 3.49883Z" transform="translate(37.7021 4.49365)" fill="#006DF0"/>
<path d="M6.4138 0.583462C5.63565 -0.194487 4.37459 -0.194487 3.59625 0.583462L0.583459 3.59625C-0.19449 4.3742 -0.19449 5.63565 0.583459 6.4138C0.972732 6.80287 1.48234 6.99731 1.99234 6.99731C2.50234 6.99731 3.01194 6.80287 3.40101 6.4138L6.4138 3.40101C7.19175 2.62306 7.19175 1.36161 6.4138 0.583462Z" transform="translate(57.3 4.38428)" fill="#006DF0"/>
</svg>
