<svg width="9" height="8" viewBox="0 0 9 8" fill="none" xmlns="http://www.w3.org/2000/svg">
<path d="M8.34335 0.785872C7.89945 0.27909 7.28364 7.82627e-09 6.60938 7.82627e-09C5.66107 7.82627e-09 5.06069 0.569852 4.72403 1.04791C4.63669 1.17196 4.56238 1.29635 4.5 1.4134C4.43762 1.29635 4.36333 1.17196 4.27597 1.04791C3.93931 0.569852 3.33893 7.82627e-09 2.39062 7.82627e-09C1.71636 7.82627e-09 1.10055 0.279107 0.656631 0.78589C0.233209 1.26933 0 1.91679 0 2.60899C0 3.36248 0.292377 4.0633 0.920127 4.81447C1.48117 5.48584 2.2883 6.17787 3.22295 6.97922C3.57122 7.27783 3.93138 7.58664 4.31481 7.92418L4.32633 7.93433C4.37604 7.97812 4.43802 8 4.5 8C4.56198 8 4.62396 7.9781 4.67367 7.93433L4.68519 7.92418C5.06862 7.58664 5.42878 7.27785 5.7771 6.97918C6.7117 6.17789 7.51883 5.48586 8.07987 4.81447C8.70762 4.06328 9 3.36248 9 2.60899C9 1.91679 8.76679 1.26933 8.34335 0.785872Z" fill="#A9A9A9"/>
</svg>
