<svg width="161" height="38" viewBox="0 0 161 38" fill="none" xmlns="http://www.w3.org/2000/svg">
<path d="M4.89096 7.05907H7.5486V8.943H4.89096V18.9074H2.16631V8.943H0V7.05907H2.16631V4.4715C2.16631 3.01883 2.52364 1.90663 3.21597 1.1349C3.93063 0.385865 4.89096 -1.73172e-07 6.09695 -1.73172e-07C6.32028 -1.73172e-07 6.56595 0.0226976 6.83394 0.0680936C7.10194 0.11349 7.34761 0.181584 7.52627 0.249678V2.51948C7.43694 2.49678 7.3476 2.47408 7.2136 2.45138C7.07961 2.42868 6.96794 2.40599 6.83394 2.38329C6.69995 2.36059 6.58828 2.36059 6.47661 2.33789C6.36495 2.33789 6.25328 2.31519 6.18628 2.31519C5.80662 2.31519 5.49395 2.47408 5.24829 2.76915C5.00263 3.08693 4.86862 3.56358 4.86862 4.22183V7.05907H4.89096Z" transform="translate(53.2646 9.60486)" fill="#2F80ED"/>
<path d="M1.36311e-06 -6.92687e-07H2.74698V7.33145C2.74698 8.14857 2.92564 8.80682 3.26064 9.26078C3.59564 9.71474 4.1093 9.94172 4.77929 9.94172C5.09196 9.94172 5.38229 9.89632 5.67262 9.82823C5.96295 9.76013 6.23095 9.64664 6.49895 9.51045C6.74461 9.37427 6.99027 9.23808 7.21361 9.07919C7.43694 8.92031 7.63794 8.76142 7.8166 8.57984V-6.92687e-07H10.5636V11.8483H7.90593L7.8166 10.6681C7.61561 10.8496 7.39227 11.0312 7.14661 11.1901C6.90094 11.3717 6.63294 11.5079 6.32028 11.6441C6.02995 11.7803 5.69495 11.8937 5.35996 11.9618C5.02496 12.0526 4.6453 12.0753 4.26563 12.0753C2.81398 12.0753 1.74198 11.6895 1.04966 10.895C0.357328 10.1006 0.0223359 8.9657 0.0223359 7.46764V-6.92687e-07H1.36311e-06Z" transform="translate(62.1089 16.3916)" fill="#2F80ED"/>
<path d="M10.5412 12.098H7.79427V4.76658C7.79427 3.92675 7.61561 3.29121 7.28061 2.83725C6.94561 2.38329 6.43195 2.15631 5.76195 2.15631C5.44929 2.15631 5.15896 2.2017 4.86862 2.2698C4.57829 2.33789 4.3103 2.45138 4.0423 2.58757C3.79664 2.72376 3.55097 2.85995 3.32764 3.01883C3.10431 3.17772 2.90331 3.3366 2.72464 3.51819V12.098H1.36311e-06V0.249678H2.65764L2.74698 1.42997C2.94797 1.22569 3.17131 1.04411 3.41697 0.885221C3.66263 0.703637 3.93064 0.567449 4.2433 0.431261C4.53363 0.295073 4.86862 0.181585 5.20362 0.113491C5.53862 0.0226987 5.91828 6.92687e-07 6.29795 6.92687e-07C7.7496 6.92687e-07 8.8216 0.385866 9.51392 1.18029C10.2063 1.97472 10.5412 3.10962 10.5412 4.60769V12.098V12.098Z" transform="translate(73.9453 16.4143)" fill="#2F80ED"/>
<path d="M11.8589 18.6804H9.22359L9.13426 17.6363C8.91093 17.8179 8.66526 17.9768 8.37493 18.1357C8.0846 18.2946 7.79427 18.4308 7.45927 18.5443C7.12427 18.6577 6.78928 18.7712 6.40962 18.8393C6.05229 18.9074 5.67262 18.9528 5.29296 18.9528C4.53363 18.9528 3.81897 18.8166 3.17131 18.5443C2.52365 18.2719 1.96532 17.886 1.49632 17.3867C1.02733 16.8646 0.647659 16.2291 0.401994 15.48C0.133996 14.7083 0 13.8458 0 12.8471C0 11.8937 0.133998 11.0539 0.424328 10.2822C0.714659 9.51045 1.11665 8.85221 1.63032 8.30746C2.16631 7.76271 2.79164 7.33145 3.55097 7.03637C4.3103 6.7413 5.13663 6.58241 6.07462 6.58241C6.65528 6.58241 7.21361 6.65051 7.72727 6.7867C8.24093 6.92288 8.70993 7.10447 9.11192 7.33145V-3.46344e-07H11.8589V18.6804ZM2.79164 12.8698C2.79164 13.5507 2.88098 14.1181 3.03731 14.6175C3.19364 15.1169 3.41697 15.5027 3.68497 15.8205C3.95297 16.1383 4.28796 16.3879 4.66763 16.5241C5.02496 16.683 5.42696 16.7511 5.85129 16.7511C6.20862 16.7511 6.56594 16.7057 6.87861 16.6149C7.2136 16.5241 7.50394 16.4106 7.79427 16.2745C8.0846 16.1383 8.33026 15.9794 8.55359 15.8432C8.77692 15.6843 8.97792 15.5254 9.13426 15.4119V9.44236C9.02259 9.35157 8.86626 9.23808 8.68759 9.14729C8.4866 9.0565 8.2856 8.9657 8.06227 8.87491C7.83894 8.78412 7.57093 8.71603 7.32527 8.67063C7.05727 8.62523 6.78928 8.57984 6.52128 8.57984C6.05229 8.57984 5.60562 8.64793 5.15896 8.78412C4.7123 8.92031 4.3103 9.16999 3.9753 9.48776C3.6403 9.82823 3.34997 10.2595 3.14898 10.8042C2.90331 11.3717 2.79164 12.0526 2.79164 12.8698Z" transform="translate(85.7598 9.55957)" fill="#2F80ED"/>
<path d="M10.2732 12.1661H7.52627V4.83467C7.52627 3.99485 7.36994 3.3593 7.05728 2.90534C6.74461 2.45138 6.25328 2.2244 5.60562 2.2244C5.31529 2.2244 5.02496 2.2698 4.73463 2.36059C4.4443 2.45138 4.1763 2.56487 3.93064 2.70106C3.68497 2.83725 3.4393 2.97344 3.23831 3.13232C3.01497 3.29121 2.85864 3.42739 2.70231 3.56358V12.1434H0V0.317772H2.63531L2.70231 1.49807C2.90331 1.31648 3.12664 1.1576 3.37231 0.976014C3.61797 0.79443 3.88597 0.635543 4.1763 0.499355C4.46663 0.363167 4.77929 0.249677 5.09195 0.158885C5.42695 0.0680933 5.76195 0.0226976 6.11928 0.0226976C7.01261 0.0226976 7.72727 0.204282 8.33026 0.544752C8.91092 0.885222 9.37992 1.36188 9.67025 1.97472C9.91591 1.74774 10.1839 1.52076 10.4742 1.27109C10.7646 1.04411 11.0996 0.817128 11.4346 0.635544C11.7696 0.45396 12.1269 0.295074 12.5066 0.181585C12.8862 0.0680946 13.2659 0 13.6456 0C15.0525 0 16.0799 0.408564 16.7499 1.22569C17.4199 2.04282 17.7549 3.20041 17.7549 4.69848V12.1207H15.0079V4.83467C15.0079 3.99485 14.8515 3.3593 14.5389 2.90534C14.2262 2.45138 13.7572 2.2244 13.1319 2.2244C12.8192 2.2244 12.5066 2.2698 12.1939 2.38329C11.9036 2.49678 11.6132 2.61027 11.3676 2.76915C11.1219 2.92804 10.8762 3.08693 10.6752 3.26851C10.4742 3.45009 10.3179 3.63168 10.1839 3.76786C10.2062 3.88135 10.2286 4.01754 10.2286 4.22182C10.2509 4.42611 10.2509 4.58499 10.2509 4.72118V12.1661H10.2732Z" transform="translate(98.936 16.3462)" fill="#2F80ED"/>
<path d="M5.45243e-06 6.10576C5.45243e-06 5.19784 0.134004 4.35801 0.446668 3.60898C0.736999 2.85995 1.16132 2.2017 1.69732 1.67965C2.23331 1.1349 2.88097 0.726336 3.61796 0.431262C4.35496 0.136188 5.20362 0 6.11928 0C7.01261 0 7.79427 0.136187 8.4866 0.385865C9.1566 0.658241 9.73725 1.02141 10.2062 1.52076C10.6752 2.02012 11.0102 2.61027 11.2559 3.3366C11.4792 4.04024 11.6132 4.85737 11.6132 5.74259V6.92288H2.70231C2.74698 7.42224 2.88098 7.8762 3.08198 8.28476C3.28298 8.69333 3.55098 9.05649 3.90831 9.35157C4.2433 9.64664 4.66763 9.87362 5.13663 10.0552C5.60563 10.2141 6.11929 10.3049 6.69995 10.3049C7.03495 10.3049 7.39227 10.2822 7.7496 10.2141C8.12926 10.146 8.50893 10.0552 8.91092 9.94172C9.31292 9.82823 9.69258 9.66934 10.0946 9.51045C10.4966 9.32887 10.8539 9.14729 11.2336 8.89761V11.0766C10.5189 11.4852 9.75959 11.8029 8.95559 12.0299C8.1516 12.2569 7.23594 12.3704 6.23095 12.3704C5.29295 12.3704 4.4443 12.2342 3.68498 11.9391C2.92565 11.6668 2.27798 11.2582 1.76432 10.7134C1.22832 10.1687 0.826324 9.51045 0.535993 8.73872C0.133996 7.96699 5.45243e-06 7.08177 5.45243e-06 6.10576ZM6.07461 2.15631C5.15895 2.15631 4.42197 2.38329 3.86364 2.85995C3.28298 3.3366 2.9033 4.01754 2.72464 4.90276H8.8886C8.84393 4.01754 8.57592 3.3366 8.08459 2.85995C7.59326 2.38329 6.92327 2.15631 6.07461 2.15631Z" transform="translate(118.009 16.1193)" fill="#2F80ED"/>
<path d="M12.0599 3.46344e-07L6.85627 11.8483H4.73462L5.45243e-06 3.46344e-07H2.79165L5.40462 7.14986C5.51628 7.42224 5.60563 7.69462 5.69496 7.98969C5.78429 8.28476 5.87362 8.57984 5.94062 8.87491C5.98528 8.71602 6.02995 8.55714 6.09695 8.37556C6.14162 8.19397 6.20862 8.03508 6.25329 7.8762C6.29795 7.71731 6.36494 7.58112 6.40961 7.44494C6.45427 7.30875 6.49894 7.21796 6.52127 7.12717C6.72227 6.55972 6.9456 5.99227 7.19127 5.37942C7.4146 4.76658 7.66027 4.17643 7.90593 3.56358C8.1516 2.95074 8.39726 2.33789 8.6206 1.74774C8.86626 1.1576 9.08959 0.56745 9.31292 0.022698H12.0599V3.46344e-07Z" transform="translate(137.104 16.6641)" fill="#2F80ED"/>
<path d="M10.5413 12.098H7.79426V4.76658C7.79426 3.92675 7.6156 3.29121 7.2806 2.83725C6.94561 2.38329 6.43195 2.15631 5.76195 2.15631C5.44929 2.15631 5.15896 2.2017 4.86863 2.2698C4.5783 2.33789 4.31029 2.45138 4.0423 2.58757C3.79663 2.72376 3.55097 2.85995 3.32763 3.01883C3.1043 3.17772 2.90331 3.3366 2.72465 3.51819V12.098H2.72621e-06V0.249678H2.63531L2.72465 1.42997C2.92565 1.22569 3.14898 1.04411 3.39464 0.885221C3.64031 0.703637 3.9083 0.567449 4.22096 0.431261C4.51129 0.295073 4.8463 0.181585 5.1813 0.113491C5.51629 0.0226987 5.89595 6.92687e-07 6.27561 6.92687e-07C7.72727 6.92687e-07 8.79926 0.385866 9.49159 1.18029C10.1839 1.97472 10.5189 3.10962 10.5189 4.60769V12.098H10.5413Z" transform="translate(150.459 16.4143)" fill="#2F80ED"/>
<path d="M6.20862 3.17772C6.20862 4.92546 4.82396 6.33274 3.10431 6.33274C1.38466 6.33274 -5.45243e-06 4.92546 -5.45243e-06 3.17772C-5.45243e-06 1.42997 1.38466 -6.92687e-07 3.10431 -6.92687e-07C4.82396 0.0226973 6.20862 1.42997 6.20862 3.17772Z" transform="translate(130.895 22.1797)" fill="#F2C94C"/>
<path d="M28.7654 8.65151C26.7331 4.70206 23.3161 1.95561 19.4525 0.729916C17.8668 0.23056 16.2142 -0.0191174 14.5392 0.00358059C12.4622 -0.0418154 10.3406 0.34405 8.33059 1.18388C9.02292 1.54704 9.67058 1.95561 10.2736 2.38687C10.3182 2.40957 10.3629 2.45496 10.3852 2.47766C12.1719 3.79414 13.6012 5.4511 14.6955 7.31233C14.9189 7.28963 15.0975 7.31233 15.2762 7.33503C15.9685 7.40312 16.6832 7.56201 17.3085 7.76629C19.5195 8.46993 21.3285 9.99069 22.4005 12.0789C24.2095 15.5744 23.4725 19.7735 20.8818 22.4292C20.5245 22.8151 20.1225 23.1555 19.6982 23.4506C18.8718 24.0634 13.7799 26.7191 13.7799 26.7191L11.7029 27.8313L11.6136 27.8767L11.1446 28.1264L10.6309 28.3988L10.5192 28.4442L9.91625 28.7619L9.53658 28.9662L8.01793 29.7833L6.81194 29.2159L3.50663 27.6724C3.3503 27.7405 3.19397 27.8086 3.03764 27.8994C1.09465 28.9208 -0.0220048 30.9409 0.000328383 33.0518C0.000328383 33.4377 0.0449947 33.8009 0.111994 34.1867L3.9533 36.0026L8.01793 37.9092L8.24126 38L8.77726 37.7049L10.0949 37.0013L11.5242 36.2296L11.5466 36.2069L13.0429 35.3897L13.2439 35.2762L13.4672 35.1628L15.2985 34.1867L22.1101 30.5097C29.8821 26.3786 32.8301 16.5731 28.7654 8.65151Z" transform="translate(16.3257)" fill="#F2C94C"/>
<path d="M0.401996 0.181583L3.40777e-07 3.46344e-07L0.401996 0.181583C0.379663 0.181583 0.379663 0.204281 0.401996 0.181583Z" transform="translate(17.3979 26.5375)" fill="#3F97D3"/>
<path d="M-3.40777e-07 -4.3293e-08C0.044666 0.0226979 0.0669991 0.022698 0.111665 0.045396C0.0669991 0.022698 0.0223328 0.0226979 -3.40777e-07 -4.3293e-08Z" transform="translate(22.1323 0.956909)" fill="#3F97D3"/>
<path d="M0 0C0.156332 0.045396 0.312664 0.11349 0.468996 0.158886C0.312664 0.11349 0.156332 0.045396 0 0Z" transform="translate(21.6636 0.797974)" fill="#3F97D3"/>
<path d="M6.9002e-07 0.0680936L0.0226109 0.045396V-1.73172e-07" transform="translate(14.8071 7.56201)" fill="#3F97D3"/>
<path d="M11.1446 5.28863C11.1446 5.19784 11.1222 5.10705 11.1222 5.01625C11.0552 4.38071 10.8542 3.74517 10.5639 3.13232C10.1619 2.31519 9.58125 1.61156 8.88892 1.1122C8.84426 1.06681 8.79959 1.04411 8.75492 1.02141C7.8616 0.385865 6.81194 0.0226978 5.71762 -1.73172e-07C5.36028 -1.73172e-07 4.98062 0.0226981 4.62329 0.0907921C4.0873 0.181584 3.57363 0.363168 3.05997 0.635544C1.09465 1.65695 -0.0220044 3.67707 0.000328703 5.78799C0.000328703 6.65051 0.201327 7.53573 0.603324 8.37556C0.714989 8.60254 0.848988 8.82951 0.982987 9.0338C1.87631 10.3503 3.2163 11.1901 4.69029 11.4398C4.95829 11.4852 5.20395 11.5079 5.47195 11.5079C5.91861 11.5079 6.36528 11.4625 6.81194 11.3717C7.2586 11.2582 7.68293 11.0993 8.10726 10.895C9.67058 10.0779 10.6756 8.60253 11.0329 6.99098C11.0999 6.7186 11.1222 6.44623 11.1446 6.17385V6.15115C11.1669 5.83338 11.1669 5.56101 11.1446 5.28863Z" transform="translate(0 4.61121)" fill="#2F80ED"/>
<path d="M4.48662 1.86123C4.17395 1.86123 3.83896 1.81584 3.52629 1.77044C2.23097 1.54346 1.00265 0.953315 0.0199881 0C-0.292676 6.46892 3.07963 12.3704 8.95325 15.6389C9.06491 15.707 9.17658 15.7751 9.28825 15.8205C9.46691 15.9113 9.64557 16.0021 9.82424 16.0929C9.84657 16.1156 9.89124 16.1156 9.91357 16.1383C10.1816 16.2745 10.4496 16.3879 10.7399 16.5241L14.2909 18.1811C14.2685 18.0222 14.2685 17.8406 14.2685 17.659C14.2685 15.0942 15.5862 12.8698 17.5738 11.6214L13.0402 9.48776C12.7722 9.37427 12.5266 9.23808 12.2586 9.07919C9.37758 7.44494 7.43459 4.4942 7.2336 1.27109C6.85393 1.42997 6.47427 1.56616 6.0946 1.65695C5.55861 1.81584 5.02261 1.86123 4.48662 1.86123Z" transform="translate(0.918457 15.4382)" fill="#2F80ED"/>
<path d="M17.0849 1.79033C17.0402 1.76763 16.9955 1.74493 16.9509 1.72223C16.2362 1.35907 15.4769 1.04129 14.6952 0.768919C11.5686 -0.275188 8.39726 -0.207094 5.47162 0.678127C5.44929 0.678127 5.44929 0.655429 5.44929 0.655429C5.38229 0.678127 5.31529 0.700825 5.24829 0.723523C3.34997 1.29097 1.56332 2.26699 -8.51942e-08 3.56077C0.893326 3.74235 1.71965 4.10552 2.47898 4.65027C2.54598 4.69567 2.59065 4.71837 2.63531 4.76376C3.46164 5.37661 4.15397 6.21643 4.6453 7.21515C4.89096 7.7145 5.06962 8.25925 5.20362 8.78131C5.87362 8.35004 6.58828 7.98688 7.34761 7.7599C7.57094 7.6918 7.7496 7.62371 7.90593 7.57831C8.84393 7.35133 9.80425 7.30594 10.7646 7.41943C11.3229 7.48752 11.8812 7.62371 12.4396 7.80529C14.3379 8.44084 15.8789 9.68922 16.9285 11.2554C17.0625 11.0511 17.1965 10.8695 17.3529 10.6652C18.0675 9.73462 18.9832 8.96289 20.0552 8.37274C21.0155 7.85069 22.0428 7.53292 23.0701 7.39673C21.6408 5.05884 19.6085 3.12951 17.0849 1.79033Z" transform="translate(6.90137 0.00634766)" fill="#2F80ED"/>
</svg>
