<svg width="104" height="108" viewBox="0 0 104 108" fill="none" xmlns="http://www.w3.org/2000/svg">
<path d="M2.10383 4.21875C3.26574 4.21875 4.20765 3.27435 4.20765 2.10938C4.20765 0.9444 3.26574 0 2.10383 0C0.941915 0 0 0.9444 0 2.10938C0 3.27435 0.941915 4.21875 2.10383 4.21875Z" transform="translate(14.4321 83.6768)" fill="#006DF0"/>
<path d="M2.10383 4.21875C3.26574 4.21875 4.20765 3.27435 4.20765 2.10938C4.20765 0.9444 3.26574 0 2.10383 0C0.941914 0 0 0.9444 0 2.10938C0 3.27435 0.941914 4.21875 2.10383 4.21875Z" transform="translate(95.0024 58.5225)" fill="#006DF0"/>
<path d="M9.28966 13.7325H8.07007H7.27882H6.05923C5.03803 13.7325 4.20744 12.8997 4.20744 11.8758V9.9919C4.20765 8.96801 5.03824 8.13523 6.05923 8.13523H9.63826C10.467 8.13523 11.1414 8.81108 11.1414 9.64217C11.1414 10.807 12.0835 11.7515 13.2453 11.7515C14.407 11.7515 15.3491 10.807 15.3491 9.64217C15.3491 6.53232 12.8628 3.99516 9.77838 3.92007V2.10938C9.77838 0.94458 8.83628 9.26972e-07 7.67455 9.26972e-07C6.51282 9.26972e-07 5.57072 0.94458 5.57072 2.10938V3.93799C2.45748 4.18859 -5.64993e-07 6.80717 -5.64993e-07 9.9919V11.8758C-5.64993e-07 15.2257 2.71835 17.9512 6.05944 17.9512H7.27903H8.07028H9.28987C10.3111 17.9512 11.1417 18.784 11.1417 19.8077V21.6918C11.1417 22.7155 10.3111 23.5482 9.28987 23.5482H5.71084C4.88214 23.5482 4.20765 22.8724 4.20765 22.0413C4.20765 20.8765 3.26556 19.9319 2.10383 19.9319C0.942093 19.9319 -5.64993e-07 20.8765 -5.64993e-07 22.0413C-5.64993e-07 25.1514 2.48651 27.6883 5.57072 27.7634V29.5741C5.57072 30.7389 6.51282 31.6835 7.67455 31.6835C8.83628 31.6835 9.77838 30.7389 9.77838 29.5741V27.7455C12.8916 27.4949 15.3491 24.8765 15.3491 21.6918V19.8077C15.3491 16.4578 12.6307 13.7325 9.28966 13.7325Z" transform="translate(63.4641 31.0586)" fill="#006DF0"/>
<path d="M103.312 71.5097C102.446 69.544 100.869 68.0336 98.8706 67.2574C96.8722 66.4811 94.6916 66.5313 92.731 67.3998C92.7205 67.4042 92.71 67.4091 92.6999 67.4137L79.4481 73.541C78.3928 74.0289 77.9321 75.2821 78.4185 76.3399C78.9051 77.398 80.1552 77.8598 81.21 77.3723L94.4448 71.2528C95.3736 70.8463 96.4049 70.8246 97.3508 71.1914C98.3013 71.5607 99.0513 72.2788 99.463 73.2139C99.875 74.1489 99.8988 75.1884 99.5306 76.1415C99.1622 77.0947 98.4461 77.8467 97.5134 78.2595L70.3951 90.2648C66.1189 92.158 61.2651 92.0478 57.0777 89.9621L47.1508 85.0175C41.8411 82.3726 35.6853 82.2323 30.2619 84.6338L30.1356 84.6895L22.7779 67.9811L33.0084 63.4523C37.8975 61.2879 43.3527 61.1136 48.3689 62.9604L68.331 70.3105C70.114 70.9669 71.0643 72.9671 70.4494 74.7687C69.8229 76.6047 67.8215 77.5925 65.9882 76.9709L50.5514 71.7358C49.4505 71.3625 48.2567 71.9546 47.8844 73.0582C47.512 74.1618 48.1025 75.3589 49.2033 75.7322L64.6401 80.9673C65.4564 81.2442 66.2876 81.3757 67.106 81.3757C70.3213 81.3757 73.3346 79.3464 74.4307 76.1343C75.7798 72.1801 73.6941 67.7911 69.7814 66.3506L49.8193 59.0005C48.4766 58.506 47.1078 58.1324 45.7265 57.8781V46.2181C45.7265 34.7211 55.0555 25.3675 66.5222 25.3675H74.2062C85.6731 25.3675 95.0021 34.7211 95.0021 46.2181V51.7153C95.0021 52.8801 95.9442 53.8247 97.1059 53.8247C98.2676 53.8247 99.2097 52.8801 99.2097 51.7153V46.2181C99.2097 34.0425 90.5073 23.8679 79.0113 21.6151V15.2611L84.3271 6.14392C84.6277 5.6286 84.6963 5.00949 84.5158 4.44059C84.3353 3.8717 83.9231 3.40595 83.381 3.15894L76.8612 0.188936C76.362 -0.038455 75.7942 -0.0614472 75.2785 0.1246L70.4408 1.87032L66.1498 0.150545C65.6564 -0.0468925 65.1071 -0.0500566 64.6115 0.141264L57.7892 2.7803C57.2216 2.99989 56.7766 3.4553 56.5688 4.02884C56.3613 4.60238 56.4114 5.23773 56.7066 5.7714L61.9411 15.2355V21.5717C50.3345 23.7355 41.5188 33.963 41.5188 46.2176V57.4733C38.0433 57.4404 34.5716 58.1481 31.3089 59.5923L21.0023 64.1549C20.412 63.2692 19.57 62.5845 18.5587 62.1917C17.2602 61.6872 15.8433 61.7201 14.5745 62.2818L1.25935 68.1317C0.494189 68.468 6.9019e-08 69.2261 6.9019e-08 70.0637V105.891C6.9019e-08 106.623 0.37911 107.303 1.00142 107.687C1.33867 107.895 1.72072 108 2.10383 108C2.42824 108 2.75349 107.925 3.05244 107.773L28.9028 94.6803C30.1495 94.1112 31.107 93.0945 31.6026 91.8116C32.0076 90.7634 32.0653 89.6385 31.7791 88.5733L31.9611 88.4927C36.2376 86.5991 41.0919 86.7094 45.2786 88.7954L55.2055 93.7402C60.5153 96.3845 66.6709 96.5244 72.0944 94.1237L99.2127 82.1184C101.173 81.2506 102.68 79.669 103.454 77.6653C104.228 75.6616 104.178 73.4754 103.312 71.5097ZM74.8037 21.1483H74.2062H66.5222H66.1487V16.7992H74.8037V21.1483V21.1483ZM61.558 5.84375L65.3552 4.37541L69.6207 6.08506C70.0987 6.2766 70.6301 6.28609 71.1142 6.11101L75.8991 4.38406L79.5179 6.03254L75.7003 12.58H65.2839L61.558 5.84375ZM27.1472 90.8461C27.1139 90.8609 27.0809 90.8767 27.0483 90.8932L4.20765 102.462V93.9138L10.1221 91.0018C11.1652 90.4882 11.5955 89.2242 11.0834 88.1786C10.5711 87.1328 9.31091 86.701 8.26762 87.2148L4.20744 89.2137V71.4424L16.2685 66.1432C16.5998 65.9968 16.8933 66.069 17.0387 66.1255C17.1836 66.182 17.4491 66.3261 17.5956 66.6588L18.0778 67.7535C18.078 67.7539 18.078 67.7544 18.0782 67.7548C18.0784 67.7552 18.0786 67.7556 18.0788 67.7561L27.6609 89.5151C27.8854 90.0243 27.655 90.6213 27.1472 90.8461Z" fill="#006DF0"/>
</svg>
