<svg width="20" height="17" viewBox="0 0 20 17" fill="none" xmlns="http://www.w3.org/2000/svg">
<path d="M0.70568 1.41379H10.8606C11.2565 1.41379 11.5663 1.10345 11.5663 0.706897C11.5663 0.310345 11.2565 -1.31541e-07 10.8606 -1.31541e-07H0.70568C0.309811 -1.31541e-07 -6.56574e-08 0.310345 -6.56574e-08 0.706897C-6.56574e-08 1.10345 0.309811 1.41379 0.70568 1.41379Z" transform="translate(4.2168 4.56885)" fill="#646464"/>
<path d="M0.70568 1.41379H10.8606C11.2565 1.41379 11.5663 1.10345 11.5663 0.706896C11.5663 0.310344 11.2565 -2.63083e-07 10.8606 -2.63083e-07H0.70568C0.309811 -2.63083e-07 -6.56574e-08 0.310344 -6.56574e-08 0.706896C-6.56574e-08 1.10345 0.309811 1.41379 0.70568 1.41379Z" transform="translate(4.2168 7.98267)" fill="#646464"/>
<path d="M0.70568 13.9655H2.97762V16.2931C2.97762 16.569 3.13253 16.8103 3.37349 16.931C3.47676 16.9828 3.58003 17 3.6833 17C3.83821 17 3.99312 16.9483 4.1136 16.8621L7.90017 13.9828H19.2943C19.6902 13.9828 20 13.6724 20 13.2759V0.706896C20 0.310345 19.6902 3.28853e-08 19.2943 3.28853e-08H0.70568C0.309811 3.28853e-08 1.64144e-08 0.310345 1.64144e-08 0.706896V13.2586C1.64144e-08 13.6552 0.327022 13.9655 0.70568 13.9655ZM1.41136 1.41379H18.5714V12.5517H7.65921C7.5043 12.5517 7.3494 12.6034 7.22892 12.6897L4.38898 14.8621V13.2586C4.38898 12.8621 4.07917 12.5517 3.6833 12.5517H1.41136V1.41379Z" fill="#646464"/>
</svg>
