<svg width="64" height="64" viewBox="0 0 64 64" fill="none" xmlns="http://www.w3.org/2000/svg">
<path d="M8.06595 1.01504e-06C3.61651 1.01504e-06 2.68775e-07 3.61533 2.68775e-07 8.06332C2.68775e-07 12.5113 3.61651 16.1266 8.06595 16.1266C12.5154 16.1266 16.1319 12.5113 16.1319 8.06332C16.1319 3.61533 12.5154 1.01504e-06 8.06595 1.01504e-06ZM8.06595 12.5746C5.57758 12.5746 3.56383 10.5615 3.56383 8.07392C3.56383 5.58636 5.58819 3.57326 8.06595 3.57326C10.5437 3.57326 12.5681 5.58636 12.5681 8.07392C12.5681 10.5615 10.5543 12.5746 8.06595 12.5746Z" transform="translate(8.26611 27.0566)" fill="#4F4F4F" fill-opacity="0.33"/>
<path d="M32.664 16.0632C32.527 7.18843 25.252 1.35339e-06 16.332 1.35339e-06C7.31718 1.35339e-06 -3.88853e-10 7.31495 -3.88853e-10 16.3267C-3.88853e-10 17.3069 0.790856 18.1079 1.78183 18.1079H30.8928H30.9034C32.8329 18.1079 32.6853 16.1581 32.664 16.0632ZM3.67963 14.5559C4.5442 8.34767 9.88986 3.55191 16.332 3.55191C22.7742 3.55191 28.1198 8.33724 28.9844 14.5559H3.67963Z" transform="translate(0 45.8921)" fill="#4F4F4F" fill-opacity="0.33"/>
<path d="M18.5883 0C8.33996 0 -1.99093e-07 8.33723 -1.99093e-07 18.5824C-1.99093e-07 22.7141 1.38127 26.73 3.93275 29.9974L1.79243 41.0751C1.65543 41.7918 1.97168 42.5192 2.58329 42.9196C3.14206 43.2674 4.1332 43.1937 4.58661 42.8457L13.3167 36.3951C15.0458 36.9116 16.8066 37.1645 18.5674 37.1645C28.8158 37.1645 37.1559 28.8273 37.1559 18.5821C37.1559 8.33691 28.8368 0 18.5883 0ZM18.5883 33.6021C16.9118 33.6021 15.2354 33.3176 13.6117 32.7379C13.053 32.5376 12.4414 32.6325 11.9565 32.9909L6.14695 37.2701L7.5809 29.8499C7.68626 29.3229 7.53866 28.7642 7.19078 28.3531C4.85001 25.6337 3.56383 22.1555 3.56383 18.5718C3.56383 10.2766 10.3012 3.54147 18.5991 3.54147C26.8969 3.54147 33.6343 10.2766 33.6343 18.5718C33.6341 26.867 26.8862 33.6021 18.5883 33.6021Z" transform="translate(26.8442)" fill="#4F4F4F" fill-opacity="0.33"/>
<path d="M7.21182 1.29368e-07C7.16957 1.29368e-07 7.14854 1.29368e-07 7.10646 1.29368e-07C5.2297 1.29368e-07 3.44787 0.727337 2.11928 2.05533C0.759215 3.40451 -1.19456e-06 5.2068 -1.19456e-06 7.12517C-1.19456e-06 8.10539 0.790856 8.90642 1.78183 8.90642C2.77297 8.90642 3.56366 8.11598 3.56366 7.12517C3.56366 6.16598 3.94319 5.25962 4.61808 4.59555C5.29282 3.93147 6.21024 3.55207 7.15914 3.5731C9.03589 3.59413 10.6385 5.19636 10.6597 7.07251C10.6703 8.3374 10.0587 9.47561 8.98321 10.1503C6.68469 11.5732 5.32462 13.9552 5.32462 16.5166C5.32462 17.4969 6.11548 18.2979 7.10646 18.2979C8.08699 18.2979 8.88829 17.5073 8.88829 16.5166C8.88829 15.1885 9.6369 13.9448 10.8706 13.1754C13.0109 11.8368 14.2656 9.54963 14.2235 7.04104C14.1601 3.20413 11.0286 0.0632611 7.21182 1.29368e-07Z" transform="translate(38.3262 6.47168)" fill="#4F4F4F" fill-opacity="0.33"/>
<path d="M1.78183 -3.18445e-07C0.801296 -3.18445e-07 -1.83165e-06 0.790436 -1.83165e-06 1.78125V2.46636C-1.83165e-06 3.44658 0.790857 4.24761 1.78183 4.24761C2.76237 4.24761 3.56366 3.45701 3.56366 2.46636V1.78125C3.56383 0.790436 2.76237 -3.18445e-07 1.78183 -3.18445e-07Z" transform="translate(43.6504 26.4453)" fill="#4F4F4F" fill-opacity="0.33"/>
</svg>
