<svg width="105" height="105" viewBox="0 0 105 105" fill="none" xmlns="http://www.w3.org/2000/svg">
<path d="M104.819 10.3964C104.491 9.74982 103.783 9.38634 103.069 9.49804L94.1231 10.8771L95.5022 1.93089C95.6125 1.21488 95.2502 0.508927 94.6039 0.181193C93.9573 -0.146541 93.1736 -0.021658 92.6614 0.490831L82.2766 10.8756C82.0249 11.1276 81.8598 11.4531 81.8057 11.8051L80.1619 22.4689L74.2173 28.4135C66.0287 20.811 55.4286 16.6414 44.1797 16.6414C32.3697 16.6414 21.2728 21.2344 12.9331 29.574C4.59297 37.9139 0 49.0109 0 60.8209C0 72.631 4.59297 83.7277 12.9326 92.0676C21.2725 100.407 32.3695 105 44.1793 105C55.9891 105 67.0863 100.407 75.4259 92.0674C83.7656 83.7274 88.3586 72.6305 88.3586 60.8207C88.3586 51.4263 85.4552 42.4593 79.9624 34.8888C79.4188 34.1395 78.3706 33.9729 77.6222 34.5166C76.8732 35.0602 76.7065 36.1077 77.25 36.8568C82.3251 43.8516 85.0075 52.1381 85.0075 60.8209C85.0075 83.3336 66.692 101.649 44.1793 101.649C21.6666 101.649 3.35106 83.3336 3.35106 60.8209C3.35106 38.3083 21.6666 19.9927 44.1793 19.9927C54.533 19.9927 64.2915 23.814 71.8457 30.7849L64.1865 38.4441C58.6789 33.5122 51.6245 30.8097 44.1791 30.8097C27.6306 30.8097 14.1676 44.2729 14.1676 60.8211C14.1676 77.3694 27.6306 90.8326 44.1791 90.8326C60.7275 90.8326 74.1903 77.3694 74.1903 60.8211C74.1903 55.2979 72.6801 49.9007 69.8232 45.2128C69.3415 44.4226 68.3105 44.1722 67.5203 44.6541C66.7302 45.1355 66.4802 46.1667 66.9616 46.9569C69.4981 51.1194 70.839 55.9136 70.839 60.8214C70.839 75.522 58.8793 87.4818 44.1788 87.4818C29.4782 87.4818 17.5185 75.522 17.5185 60.8214C17.5185 46.1207 29.4782 34.161 44.1788 34.161C50.7306 34.161 56.9422 36.5152 61.8137 40.8169L54.1364 48.4941C51.3271 46.217 47.8496 44.9778 44.1788 44.9778C35.4429 44.9778 28.3355 52.0851 28.3355 60.8214C28.3355 69.5576 35.4429 76.6647 44.1788 76.6647C52.9151 76.6647 60.0222 69.5576 60.0222 60.8214C60.0222 59.2649 59.797 57.7265 59.3531 56.2487C59.0868 55.3625 58.1526 54.8594 57.2663 55.1263C56.3801 55.3924 55.8774 56.3267 56.1439 57.2132C56.4938 58.378 56.6712 59.5917 56.6712 60.8214C56.6712 67.7096 51.0671 73.3137 44.1788 73.3137C37.2906 73.3137 31.6865 67.7096 31.6865 60.8214C31.6865 53.9329 37.2906 48.3288 44.1788 48.3288C46.9526 48.3288 49.5852 49.2271 51.7491 50.8814L42.9939 59.6367C42.3396 60.2912 42.3396 61.352 42.9939 62.0063C43.321 62.3334 43.7499 62.4969 44.1786 62.4969C44.6073 62.4969 45.0363 62.3334 45.3633 62.0063L75.4199 31.9497C75.4302 31.9394 82.5304 24.8392 82.5304 24.8392L93.1942 23.1952C93.5463 23.1411 93.8718 22.976 94.1238 22.7242L104.508 12.3395C105.022 11.8264 105.147 11.0427 104.819 10.3964V10.3964ZM85.0337 12.8576L91.4101 6.48142L90.5464 12.0842L84.17 18.4606L85.0337 12.8576V12.8576ZM92.1424 19.9665L86.5399 20.8302L92.9163 14.4538L98.5186 13.5901L92.1424 19.9665V19.9665Z" fill="#006DF0"/>
</svg>
