<svg width="36" height="36" viewBox="0 0 36 36" fill="none" xmlns="http://www.w3.org/2000/svg">
<rect width="36" height="36" rx="5" fill="#2F80ED"/>
<path d="M24 27.7802V22.0997C23.2629 21.3474 22.2358 20.88 21.0991 20.88H12.8417L24 5.68215V0.811497C23.4255 0.298621 22.6745 3.92471e-08 21.8774 3.92471e-08H4.99927C2.75636 3.92471e-08 0.937977 1.81783 0.937977 4.06005C0.937977 6.30228 2.75636 8.12011 4.99927 8.12011H12.0963L0.608134 23.9409C-0.0960637 24.9105 -0.196535 26.1931 0.347758 27.2605C0.892051 28.3279 1.98926 29 3.18783 29H21.0992C22.2359 28.9999 23.2629 28.5325 24 27.7802Z" transform="translate(12 4)" fill="white"/>
</svg>
