<svg width="34" height="34" viewBox="0 0 34 34" fill="none" xmlns="http://www.w3.org/2000/svg">
<path d="M22.4004 0H9.60016C4.30674 0 1.15239e-10 4.30559 1.15239e-10 9.5976V17.0624C1.15239e-10 22.3544 4.30674 26.66 9.60016 26.66H10.5495C14.2658 26.66 17.7598 28.1066 20.3875 30.7337L21.3881 31.7345C21.562 31.9078 21.7924 32 22.027 32C22.1444 32 22.2617 31.9771 22.3748 31.9307C22.714 31.7899 22.9332 31.462 22.9332 31.0946V26.6456C27.9797 26.3678 32 22.1758 32 17.0624V9.5976C32.0005 4.30559 27.6938 0 22.4004 0ZM30.9338 17.0624C30.9338 21.5866 27.3903 25.2891 22.9337 25.5664V23.4608C22.9337 23.1665 22.6953 22.9276 22.4004 22.9276C22.1054 22.9276 21.867 23.1665 21.867 23.4608V25.5936V26.1268V30.7043L21.1422 29.9797C18.3128 27.1511 14.5512 25.5936 10.55 25.5936H9.60069C4.89555 25.5936 1.06722 21.7663 1.06722 17.0624V9.5976C1.06722 4.89371 4.89555 1.0664 9.60069 1.0664H22.4009C27.1061 1.0664 30.9344 4.89371 30.9344 9.5976V17.0624H30.9338Z" transform="translate(1 1)" fill="#006DF0" fill-opacity="0.5" stroke="#2F80ED" stroke-opacity="0.5"/>
</svg>
