<svg width="106" height="110" viewBox="0 0 106 110" fill="none" xmlns="http://www.w3.org/2000/svg">
<path d="M105.637 22.4811L95.6855 2.86301C94.7895 1.09678 93.0767 4.19618e-07 91.2155 4.19618e-07C87.8598 4.19618e-07 18.1341 4.19618e-07 14.7844 4.19618e-07C12.9229 4.19618e-07 11.2103 1.09678 10.3144 2.86301L0.362649 22.4811C-0.16353 23.5183 -0.114194 24.7773 0.491566 25.7658C1.05314 26.6826 2.00682 27.2296 3.04245 27.2296H11.1453V66.6934C11.1453 69.4944 13.252 71.7734 15.8417 71.7734C16.9041 71.7734 89.0966 71.7734 90.159 71.7734C92.7485 71.7734 94.8554 69.4946 94.8554 66.6934V49.7521C94.8554 48.862 94.1353 48.1406 93.2464 48.1406C92.3575 48.1406 91.6374 48.8618 91.6374 49.7521V66.6937C91.6374 67.7002 90.9604 68.5508 90.1588 68.5508H54.609V8.34068L63.0004 24.8824C63.7347 26.3304 65.1448 27.23 66.68 27.23H91.637V42.2323C91.637 43.1224 92.3571 43.8439 93.246 43.8439C94.1349 43.8439 94.855 43.1227 94.855 42.2323V27.23H102.958C103.993 27.23 104.947 26.6828 105.509 25.7663C106.114 24.7771 106.164 23.5186 105.637 22.4811ZM3.21598 24.0071C3.21598 23.9867 3.22006 23.9639 3.23143 23.9412L13.1831 4.32309C13.5272 3.64462 14.1409 3.22309 14.7846 3.22309H50.3779C49.1482 5.64761 41.7909 20.1505 40.1311 23.4227V23.423C39.9481 23.7833 39.6375 24.0071 39.3203 24.0071C38.4125 24.0071 4.19584 24.0071 3.21598 24.0071ZM51.391 68.5505H15.8415C15.0401 68.5508 14.3631 67.7004 14.3631 66.6937V27.2298H39.32C40.8608 27.2298 42.268 26.3253 42.9996 24.8824L51.391 8.34047V68.5505ZM66.68 24.0069C66.3628 24.0069 66.052 23.783 65.8692 23.4225L55.6224 3.22288H91.2157C91.8592 3.22288 92.4727 3.6444 92.8172 4.32288L102.769 23.9409C102.78 23.9637 102.784 23.9865 102.784 24.0069C101.803 24.0069 67.588 24.0069 66.68 24.0069Z" transform="translate(0 38.2266)" fill="#006DF0"/>
<path d="M19.5787 5.01038C15.9926 -0.752388 7.94545 -1.72563 3.09981 3.13457C1.09805 5.14229 -0.00278348 7.80743 5.07536e-06 10.6393C0.00815623 18.8223 5.47844 26.7438 15.008 32.3725C15.2646 32.5242 15.546 32.5962 15.8238 32.5962C16.3744 32.5962 16.9109 32.3128 17.211 31.8032C17.6623 31.0368 17.4079 30.0485 16.6425 29.5965C12.6096 27.2141 3.22787 20.5978 3.21735 10.6361C3.21306 6.19782 7.11661 2.70875 11.5744 3.30989C15.5586 3.84764 16.9383 6.98308 17.2449 7.3032C18.6657 8.78798 20.6048 8.79314 21.9419 7.25872C22.299 6.84515 24.0238 3.22653 28.5632 3.2218C32.6267 3.2218 35.9367 6.53276 35.9413 10.6026C35.9509 20.0871 27.5271 26.5706 22.5051 29.5913C21.7434 30.0496 21.4968 31.0394 21.9543 31.8025C22.412 32.5656 23.4 32.8121 24.162 32.3542C33.8413 26.5322 39.1676 18.806 39.1592 10.5991C39.1477 0.225583 25.5361 -4.19011 19.5787 5.01038Z" transform="translate(33.4209)" fill="#006DF0"/>
</svg>
