<svg width="34" height="31" viewBox="0 0 34 31" fill="none" xmlns="http://www.w3.org/2000/svg">
<path d="M26.0133 7.30804C26.0133 8.33906 25.2634 8.96608 24.7158 9.42623C24.5085 9.60052 24.1225 9.91853 24.1235 10.0373C24.1273 10.5033 23.753 10.8754 23.2874 10.8754C23.285 10.8754 23.2827 10.8754 23.2804 10.8754C22.818 10.8754 22.4413 10.5147 22.4376 10.0511C22.4302 9.13728 23.0964 8.59004 23.6318 8.14011C24.0519 7.78703 24.3273 7.53858 24.3273 7.31123C24.3273 6.85099 23.9532 6.47654 23.4934 6.47654C23.0335 6.47654 22.6593 6.85099 22.6593 7.31123C22.6593 7.77728 22.2819 8.15502 21.8163 8.15502C21.3507 8.15502 20.9733 7.77728 20.9733 7.31123C20.9733 5.92048 22.1037 4.78896 23.4932 4.78896C24.8828 4.78887 26.0133 5.9172 26.0133 7.30804ZM23.3037 11.6543C22.8381 11.6543 22.4793 12.032 22.4793 12.4981V12.5046C22.4793 12.9706 22.8382 13.3452 23.3037 13.3452C23.7692 13.3452 24.1467 12.9641 24.1467 12.4981C24.1467 12.032 23.7693 11.6543 23.3037 11.6543ZM6.3122 17.532C5.84659 17.532 5.46922 17.9098 5.46922 18.3758C5.46922 18.8419 5.84659 19.2196 6.3122 19.2196H6.38245C6.84805 19.2196 7.22542 18.8419 7.22542 18.3758C7.22542 17.9098 6.84805 17.532 6.38245 17.532H6.3122ZM9.24191 17.532C8.77631 17.532 8.39894 17.9098 8.39894 18.3758C8.39894 18.8419 8.77631 19.2196 9.24191 19.2196H9.31207C9.77767 19.2196 10.155 18.8419 10.155 18.3758C10.155 17.9098 9.77767 17.532 9.31207 17.532H9.24191ZM34 4.05496V13.5524C34 15.801 32.1987 17.6258 29.9521 17.6258H19.02C18.8062 17.6258 18.6302 17.6246 18.483 17.6215C18.3287 17.6183 18.1551 17.6171 18.0873 17.6246C18.0168 17.6714 17.8439 17.83 17.6773 17.9836C17.6113 18.0445 17.5365 18.1114 17.4559 18.1851L14.3629 21.0069C14.1162 21.2322 13.7512 21.2905 13.4456 21.1557C13.1401 21.0208 12.9256 20.718 12.9256 20.3837V11.438H4.09499C2.77788 11.438 1.68595 12.5183 1.68595 13.8365V23.3339C1.68595 24.6522 2.77798 25.6886 4.09499 25.6886H16.3063C16.5166 25.6886 16.7133 25.7853 16.8686 25.9272L19.3884 28.2527V20.2331C19.3884 19.767 19.7658 19.3893 20.2314 19.3893C20.697 19.3893 21.0744 19.767 21.0744 20.2331V30.1652C21.0744 30.4994 20.8833 30.7978 20.5777 30.9327C20.4684 30.981 20.3586 31 20.2437 31C20.0372 31 19.8336 30.9152 19.6752 30.7704L15.9795 27.3761H4.09499C1.84836 27.3761 0 25.5826 0 23.3338V13.8365C0 11.5878 1.84836 9.75043 4.09499 9.75043H12.9256V4.05496C12.9256 1.80617 14.7881 -2.0028e-08 17.0347 -2.0028e-08H29.9522C32.1987 -2.0028e-08 34 1.80617 34 4.05496ZM32.314 4.05496C32.314 2.73668 31.269 1.68757 29.9521 1.68757H17.0347C15.7177 1.68757 14.6116 2.73668 14.6116 4.05496V10.6021V18.4713L16.3064 16.9381C16.3849 16.8664 16.4729 16.8007 16.537 16.7415C17.311 16.0276 17.509 15.9135 18.5185 15.9344C18.6562 15.9373 18.8202 15.9383 19.02 15.9383H29.9521C31.269 15.9383 32.314 14.8706 32.314 13.5524V4.05496Z" fill="#006DF0"/>
</svg>
