<svg width="25" height="26" viewBox="0 0 25 26" fill="none" xmlns="http://www.w3.org/2000/svg">
<path d="M0.859827 0.148687C0.663099 -0.0495623 0.344185 -0.0495623 0.147508 0.148687C-0.049169 0.347038 -0.049169 0.668584 0.147508 0.866884C0.155264 0.874704 0.163323 0.882677 0.171129 0.889989C0.268335 0.98175 0.391981 1.02715 0.515377 1.02715C0.649752 1.02715 0.783926 0.973168 0.883045 0.866477C1.07323 0.66188 1.0628 0.340436 0.859827 0.148687Z" transform="translate(20.0151 9.78125)" fill="#646464"/>
<path d="M6.35637 1.31469C6.06808 1.1173 5.77208 0.941244 5.47664 0.791288C3.80521 -0.0567049 2.03401 -0.226923 0.35442 0.298966C0.0887922 0.382196 -0.0597347 0.666722 0.0228143 0.934541C0.105313 1.20241 0.387409 1.35201 0.653188 1.26888C2.07873 0.822467 3.59005 0.971053 5.02375 1.69844C5.27664 1.82687 5.54181 1.9848 5.79061 2.15496C5.87729 2.21427 5.97566 2.24276 6.07301 2.24276C6.23428 2.24276 6.39278 2.16481 6.49019 2.02009C6.64642 1.78807 6.58649 1.47221 6.35637 1.31469Z" transform="translate(13.4956 7.78125)" fill="#646464"/>
<path d="M21.2179 12.445C21.0114 12.0082 20.6694 11.285 20.6633 11.0458C21.2523 9.58208 21.0374 7.96232 20.0564 6.48068C18.5478 4.20198 15.4558 2.54804 12.7045 2.54804C11.2502 2.54804 9.83003 2.89772 8.55236 3.56524C8.1858 1.54024 6.42442 9.29829e-09 4.31179 9.29829e-09C1.93423 9.29829e-09 -3.68888e-08 1.9502 -3.68888e-08 4.34732C-3.68888e-08 5.87242 0.770894 7.2591 2.06196 8.05662C2.43416 8.28655 2.51837 8.48531 2.54829 8.81097V10.5448V11.7825C2.54829 12.3495 3.00571 12.8108 3.56794 12.8108H3.73918C4.01584 15.0338 5.08288 17.0521 6.77667 18.5373C6.79264 18.5874 6.83923 18.8226 6.63907 19.5242C6.48319 20.0709 6.24396 20.678 6.03298 21.2138C5.89175 21.5722 5.76976 21.8819 5.69603 22.116C5.64743 22.2703 5.67473 22.4388 5.76956 22.5695C5.86445 22.7002 6.01545 22.7775 6.17606 22.7775H13.3655C13.6017 22.7775 13.9261 22.6709 14.1304 22.1628C14.2193 21.9417 14.2773 21.6757 14.3388 21.3941C14.3986 21.1196 14.5389 20.4769 14.6785 20.3993C14.6786 20.3993 14.6867 20.3979 14.7064 20.4009C14.7322 20.4051 14.7584 20.4071 14.7846 20.4071C15.5375 20.4071 16.1527 20.4415 16.6955 20.4718C18.2875 20.5609 19.2485 20.6147 20.0914 19.3904C20.5201 18.7678 20.4715 17.8596 20.4201 16.8982C20.3936 16.4027 20.3663 15.8912 20.4148 15.466C20.5027 15.3787 20.7228 15.2264 20.8608 15.1309C21.3356 14.8021 21.784 14.4916 21.784 14.0196C21.7842 13.6609 21.569 13.1875 21.2179 12.445ZM2.58828 7.1905C1.59835 6.57909 1.00736 5.51624 1.00736 4.34726C1.00736 2.51011 2.48977 1.01557 4.31184 1.01557C6.13396 1.01557 7.61631 2.51016 7.61631 4.34726C7.61631 5.51624 7.02538 6.57914 6.03539 7.1906C5.56493 7.48132 5.2853 7.82038 5.15259 8.27853L4.31169 8.27823L3.47119 8.27853C3.33837 7.82043 3.05879 7.48132 2.58828 7.1905ZM5.06807 9.29425V10.0369H3.5557V9.29425H5.06807ZM3.56804 11.7951C3.56245 11.7951 3.5557 11.7881 3.5557 11.7824V11.0525H5.06807V11.7824C5.06807 11.7882 5.06128 11.7951 5.05558 11.7951H3.56804ZM20.2907 14.2935C19.8572 14.5938 19.4828 14.8529 19.4276 15.2452C19.3518 15.7833 19.3836 16.3779 19.4143 16.9528C19.4525 17.6661 19.4957 18.4747 19.264 18.8112C18.7629 19.5391 18.3294 19.5461 16.7513 19.4577C16.2307 19.4286 15.5846 19.3925 14.8186 19.3914C14.5244 19.3564 14.0266 19.4121 13.6945 20.0631C13.5257 20.3937 13.4351 20.8092 13.3551 21.1756C13.3149 21.3598 13.2585 21.6186 13.2056 21.7618H6.90112C6.92318 21.7057 6.94595 21.6479 6.96932 21.5885C7.69488 19.7466 8.15442 18.3956 7.45494 17.7859C5.97239 16.4931 5.02693 14.7425 4.75581 12.8107H5.05563C5.61796 12.8107 6.07543 12.3494 6.07543 11.7824V10.5447V8.81193C6.1053 8.48567 6.18926 8.28676 6.56176 8.05657C7.75396 7.32014 8.50199 6.08123 8.60967 4.69496C9.84584 3.95432 11.2559 3.56361 12.7046 3.56361C15.1044 3.56361 17.9049 5.06008 19.2187 7.0445C19.7817 7.89498 20.3256 9.21808 19.7188 10.6912C19.5212 11.171 19.8142 11.8363 20.3086 12.882C20.4687 13.2205 20.7004 13.7105 20.7617 13.9395C20.6576 14.0395 20.4339 14.1944 20.2907 14.2935Z" transform="translate(3.21582 3.22241)" fill="#646464"/>
<path d="M1.80396 1.34404C1.65523 0.788245 1.28549 0.343098 0.734647 0.0565407C0.487454 -0.0718846 0.1837 0.0258182 0.056124 0.275153C-0.071351 0.524437 0.0256529 0.830698 0.272897 0.959225C0.573629 1.11563 0.756354 1.3281 0.831399 1.60856C0.950211 2.05259 0.770507 2.53303 0.691635 2.6578C0.5421 2.89434 0.61105 3.20827 0.845602 3.35904C0.929511 3.41302 1.02324 3.43866 1.11586 3.43866C1.28222 3.43866 1.445 3.35573 1.541 3.2038C1.75586 2.86412 2.00315 2.08839 1.80396 1.34404Z" transform="translate(8.19434 5.5083)" fill="#646464"/>
<path d="M0.503655 0C0.225486 0 3.50443e-07 0.227448 3.50443e-07 0.50781V1.95548C3.50443e-07 2.23584 0.225486 2.46329 0.503655 2.46329C0.781773 2.46329 1.00731 2.23584 1.00731 1.95548V0.50781C1.00731 0.227448 0.781773 0 0.503655 0Z" transform="translate(7.02441)" fill="#646464"/>
<path d="M1.93947 -1.85966e-07H0.503655C0.225486 -1.85966e-07 2.88193e-09 0.227448 2.88193e-09 0.50781C2.88193e-09 0.788274 0.225486 1.01562 0.503655 1.01562H1.93952C2.21764 1.01562 2.44313 0.788274 2.44313 0.50781C2.44313 0.227448 2.21759 -1.85966e-07 1.93947 -1.85966e-07Z" transform="translate(0 7.08228)" fill="#646464"/>
<path d="M1.65762 1.50712L0.939909 0.253949C0.8008 0.0110633 0.492714 -0.0720653 0.251867 0.0680904C0.0110192 0.208348 -0.0715296 0.518874 0.0675798 0.76176L0.785287 2.01493C0.878615 2.17789 1.04784 2.26894 1.22191 2.26894C1.30738 2.26894 1.394 2.247 1.47328 2.20079C1.71418 2.06054 1.79673 1.75001 1.65762 1.50712Z" transform="translate(3.51221 0.94873)" fill="#646464"/>
<path d="M1.99864 0.791698L0.75557 0.0680682C0.514723 -0.0720875 0.206637 0.0111428 0.067578 0.253927C-0.0715314 0.496813 0.0110175 0.807339 0.251915 0.947596L1.49499 1.67123C1.57426 1.71744 1.66089 1.73937 1.74631 1.73937C1.92037 1.73937 2.08965 1.64832 2.18298 1.48537C2.32209 1.24258 2.23954 0.931955 1.99864 0.791698Z" transform="translate(0.940918 3.54126)" fill="#646464"/>
<path d="M2.18298 0.253994C2.04382 0.0111085 1.73583 -0.0721218 1.49499 0.0681355L0.251916 0.791766C0.0110177 0.932023 -0.0715315 1.24265 0.0675779 1.48543C0.160855 1.64839 0.330133 1.73944 0.504196 1.73944C0.589616 1.73944 0.676245 1.7175 0.75557 1.67129L1.99864 0.947663C2.23954 0.807406 2.32209 0.49688 2.18298 0.253994Z" transform="translate(11.8643 3.54102)" fill="#646464"/>
<path d="M2.18323 0.25398C2.04422 0.0110943 1.73629 -0.0720344 1.49534 0.0680197L0.251968 0.79165C0.0110703 0.931805 -0.071529 1.24243 0.06753 1.48532C0.160807 1.64828 0.330136 1.73933 0.504199 1.73933C0.589618 1.73933 0.676196 1.71739 0.755522 1.67128L1.99884 0.947649C2.23974 0.807493 2.32234 0.496866 2.18323 0.25398Z" transform="translate(0.940918 9.89966)" fill="#646464"/>
<path d="M1.36969 0.0680681C1.12889 -0.0720876 0.820809 0.0111427 0.681699 0.253927L0.0675429 1.32658C-0.0715161 1.56946 0.0110326 1.88009 0.251931 2.02024C0.331256 2.06646 0.417835 2.08839 0.503254 2.08839C0.677317 2.08839 0.846646 1.99734 0.939923 1.83439L1.55408 0.761737C1.69319 0.518852 1.61064 0.208325 1.36969 0.0680681Z" transform="translate(3.51221 12.1431)" fill="#646464"/>
<path d="M1.47329 0.0681356C1.23234 -0.0721217 0.924408 0.0111085 0.785298 0.253994L0.0675905 1.50717C-0.0715188 1.75005 0.0109804 2.06063 0.251878 2.20084C0.331204 2.24705 0.417832 2.26899 0.503252 2.26899C0.677315 2.26899 0.846593 2.17794 0.93992 2.01498L1.65763 0.761805C1.79674 0.518919 1.71419 0.208393 1.47329 0.0681356Z" transform="translate(9.81885 0.94873)" fill="#646464"/>
</svg>
