<svg width="30" height="30" viewBox="0 0 30 30" fill="none" xmlns="http://www.w3.org/2000/svg">
<path d="M13.6069 8.80779L13.6041 8.81157C13.3528 8.58093 13.0228 8.4375 12.6563 8.4375C11.88 8.4375 11.25 9.0675 11.25 9.84377C11.25 10.2544 11.4281 10.62 11.7084 10.8769L11.7056 10.8807L16.2 15L11.7056 19.1203L11.7084 19.1241C11.4281 19.38 11.25 19.7456 11.25 20.1563C11.25 20.9325 11.88 21.5625 12.6562 21.5625C13.0228 21.5625 13.3528 21.4191 13.604 21.1895L13.6068 21.1932L19.2318 16.0369C19.5215 15.7697 19.6875 15.3947 19.6875 15C19.6875 14.6054 19.5215 14.2303 19.2318 13.9632L13.6069 8.80779ZM15 0C6.71627 0 0 6.71627 0 15C0 23.2837 6.71627 30 15 30C23.2837 30 30 23.2837 30 15C30 6.71627 23.2837 0 15 0ZM15 27.1875C8.28 27.1875 2.8125 21.72 2.8125 15C2.8125 8.28 8.28 2.8125 15 2.8125C21.72 2.8125 27.1875 8.28 27.1875 15C27.1875 21.72 21.72 27.1875 15 27.1875Z" transform="translate(30) rotate(90)" fill="#006DF0"/>
</svg>
