<svg width="31" height="29" viewBox="0 0 31 29" fill="none" xmlns="http://www.w3.org/2000/svg">
<path d="M18.4615 15.629V11.25C18.4615 7.39585 15.7367 4.15096 12.0668 3.24938C12.2206 2.94809 12.3077 2.60888 12.3077 2.25005C12.3077 1.00935 11.2724 0 9.99998 0C8.72751 0 7.69228 1.00935 7.69228 2.25C7.69228 2.60884 7.77932 2.94804 7.9332 3.24933C4.26325 4.15092 1.53845 7.39585 1.53845 11.25V15.6289C0.643097 15.9386 3.37454e-08 16.7722 3.37454e-08 17.7499C3.37454e-08 18.9906 1.03523 19.9999 2.30769 19.9999H6.23124C6.58854 21.7096 8.14256 23 9.99998 23C11.8574 23 13.4114 21.7096 13.7688 20H17.6923C18.9648 20 20 18.9906 20 17.75C20 16.7723 19.3569 15.9386 18.4615 15.629ZM9.99998 1.49999C10.4241 1.49999 10.7692 1.83645 10.7692 2.25C10.7692 2.66355 10.4241 3.00002 9.99998 3.00002C9.57582 3.00002 9.23073 2.66355 9.23073 2.25C9.23073 1.83645 9.57582 1.49999 9.99998 1.49999ZM9.99998 21.5C8.99714 21.5 8.14215 20.868 7.82461 19.995H12.1754C11.8578 20.868 11.0028 21.5 9.99998 21.5ZM17.6923 18.5H2.30769C1.88354 18.5 1.53845 18.1635 1.53845 17.75C1.53845 17.3364 1.88354 17 2.30769 17H3.84619C4.27099 17 4.61543 16.6642 4.61543 16.25C4.61543 15.8357 4.27103 15.4999 3.84619 15.4999H3.07689V11.2499C3.07689 7.52796 6.18259 4.49991 9.99998 4.49991C13.8174 4.49991 16.9231 7.52796 16.9231 11.2499V15.4999H16.1532C15.7284 15.4999 15.3839 15.8357 15.3839 16.25C15.3839 16.6642 15.7283 17 16.1532 17H17.6923C18.1165 17 18.4616 17.3364 18.4616 17.75C18.4616 18.1635 18.1164 18.5 17.6923 18.5Z" transform="translate(3.56641 5.68774) rotate(-13.6632)" fill="#2F80ED"/>
<path d="M5.38463 1.09673e-07C2.41555 1.09673e-07 2.24969e-07 2.35516 2.24969e-07 5.25002C2.24969e-07 5.6642 0.344401 6.00004 0.769247 6.00004C1.19409 6.00004 1.53849 5.66424 1.53849 5.25002C1.53849 3.18227 3.26386 1.50003 5.38463 1.50003C5.80943 1.50003 6.15388 1.16424 6.15388 0.750016C6.15388 0.335791 5.80943 1.09673e-07 5.38463 1.09673e-07Z" transform="translate(9.46875 10.4277) rotate(-13.6632)" fill="#2F80ED"/>
<path d="M5.38463 1.09673e-07C2.41555 1.09673e-07 2.24969e-07 2.35516 2.24969e-07 5.25002C2.24969e-07 5.6642 0.344401 6.00004 0.769247 6.00004C1.19409 6.00004 1.53849 5.66424 1.53849 5.25002C1.53849 3.18227 3.26386 1.50003 5.38463 1.50003C5.80943 1.50003 6.15388 1.16424 6.15388 0.750016C6.15388 0.335791 5.80943 1.09673e-07 5.38463 1.09673e-07Z" transform="translate(1.63574 9.23926) rotate(-25.227)" fill="#2F80ED"/>
<path d="M5.38463 1.09673e-07C2.41555 1.09673e-07 2.24969e-07 2.35516 2.24969e-07 5.25002C2.24969e-07 5.6642 0.344401 6.00004 0.769247 6.00004C1.19409 6.00004 1.53849 5.66424 1.53849 5.25002C1.53849 3.18227 3.26386 1.50003 5.38463 1.50003C5.80943 1.50003 6.15388 1.16424 6.15388 0.750016C6.15388 0.335791 5.80943 1.09673e-07 5.38463 1.09673e-07Z" transform="translate(25.9961 3.00024) rotate(87.9223)" fill="#2F80ED"/>
</svg>
