<svg width="96" height="107" viewBox="0 0 96 107" fill="none" xmlns="http://www.w3.org/2000/svg">
<path d="M1.81123 3.20984e-06C0.810979 3.20984e-06 3.66193e-07 0.811976 3.66193e-07 1.81345V9.06726C3.66193e-07 10.0687 0.810979 10.8807 1.81123 10.8807C2.81149 10.8807 3.62247 10.0687 3.62247 9.06726V1.81345C3.62247 0.811976 2.81149 3.20984e-06 1.81123 3.20984e-06Z" transform="translate(7.24487 59.8442)" fill="#2F80ED"/>
<path d="M1.81123 3.20984e-06C0.810979 3.20984e-06 -4.9747e-07 0.811976 -4.9747e-07 1.81345V9.06726C-4.9747e-07 10.0687 0.810979 10.8807 1.81123 10.8807C2.81149 10.8807 3.62247 10.0687 3.62247 9.06726V1.81345C3.62247 0.811976 2.81149 3.20984e-06 1.81123 3.20984e-06Z" transform="translate(14.49 63.4712)" fill="#2F80ED"/>
<path d="M22.5906 2.47898C21.7463 1.94175 20.627 2.19178 20.0904 3.03708C19.5756 3.84837 19.7823 4.92103 20.562 5.48206C25.5407 8.83831 26.859 15.6 23.5071 20.5845C20.1549 25.5692 13.4015 26.8894 8.42314 23.5331C3.44451 20.1769 2.12594 13.4152 5.47808 8.43073C7.49647 5.42925 10.8733 3.62872 14.4871 3.6269C15.4874 3.6269 16.2984 2.81493 16.2984 1.81345C16.2984 0.811976 15.4874 3.20984e-06 14.4871 3.20984e-06C6.48467 0.00158998 -0.00158653 6.49805 -1.69952e-06 14.5103C0.00158313 22.5226 6.4901 29.0168 14.4926 29.0152C22.4951 29.0136 28.9813 22.5172 28.9797 14.5049C28.9788 9.68224 26.5844 5.17513 22.5906 2.47898Z" transform="translate(59.7734 70.7251)" fill="#2F80ED"/>
<path d="M95.142 79.2092C93.3872 73.1226 89.0692 68.1043 83.3167 65.466V25.3887C83.317 24.7474 82.9787 24.1537 82.4274 23.8273L42.5803 0.252466C42.0116 -0.0841555 41.3049 -0.0841555 40.7364 0.252466L0.889315 23.8273C0.85128 23.8491 0.824111 23.8817 0.787886 23.9071C0.751662 23.9325 0.717248 23.9615 0.681024 23.9905C0.523673 24.1145 0.38851 24.2641 0.280741 24.433C0.280741 24.4457 0.259006 24.453 0.251761 24.4657V24.4784C0.149653 24.6626 0.0803736 24.8633 0.0470922 25.0714C0.0470922 25.1258 0.0307909 25.1765 0.0253572 25.2309C0.0199235 25.2853 4.7947e-08 25.3343 4.7947e-08 25.3887V72.5384C-0.000226356 73.1797 0.338021 73.7734 0.889315 74.0998L40.7364 97.6747C40.7842 97.6978 40.8331 97.7184 40.8832 97.7363C40.9325 97.761 40.9835 97.7828 41.0353 97.8016C41.434 97.9685 41.8827 97.9685 42.2814 97.8016C42.334 97.7828 42.3853 97.761 42.4354 97.7363C42.4825 97.7146 42.5332 97.7019 42.5803 97.6747L53.3952 91.275C56.7231 102.817 68.766 109.473 80.2942 106.141C91.8223 102.809 98.47 90.7514 95.142 79.2092ZM41.6584 3.91926L51.0768 9.492L37.1122 17.7541C36.2505 18.2639 35.9645 19.3767 36.4737 20.2394C36.9829 21.1022 38.0943 21.3885 38.956 20.8787L54.6395 11.6065L64.0579 17.1792L27.7716 38.6414L18.3532 33.0687L33.5259 24.0921C34.3876 23.5823 34.6736 22.4695 34.1644 21.6068C33.6552 20.744 32.5438 20.4577 31.6821 20.9675L14.7923 30.9614L5.37212 25.3887L41.6584 3.91926ZM25.9604 41.7841V53.8925L16.6036 48.3561V36.2477L25.9604 41.7841ZM53.2414 79.6268C52.7596 81.4561 52.519 83.3407 52.5258 85.2326C52.5262 85.9915 52.5661 86.75 52.6453 87.5048L43.4696 92.9361V87.046C43.4696 86.0446 42.6586 85.2326 41.6584 85.2326C40.6581 85.2326 39.8471 86.0446 39.8471 87.046V92.9361L3.62247 71.5048V28.5677L12.9811 34.1042V49.3897C12.9804 50.0317 13.3185 50.6263 13.8704 50.9529L26.8497 58.6329C27.1291 58.7975 27.4474 58.8845 27.7716 58.885C28.7719 58.885 29.5829 58.073 29.5829 57.0715V43.9258L39.8471 49.9991V79.7922C39.8471 80.7937 40.6581 81.6057 41.6584 81.6057C42.6586 81.6057 43.4696 80.7937 43.4696 79.7922V49.9991L76.2964 30.577C77.1576 30.0672 77.4431 28.9549 76.9339 28.0926C76.4248 27.2303 75.3138 26.9444 74.4525 27.4542L41.6584 46.8582L31.3343 40.7486L67.6206 19.2792L79.6943 26.4224V64.1966C68.1338 61.1438 56.2904 68.052 53.2414 79.6268ZM74.2606 103.367C64.2573 103.367 56.1482 95.248 56.1482 85.2326C56.1482 75.2171 64.2573 67.0981 74.2606 67.0981C84.2638 67.0981 92.3729 75.2171 92.3729 85.2326C92.362 95.2435 84.2592 103.356 74.2606 103.367Z" fill="#2F80ED"/>
<path d="M13.8927 0.509185C13.1908 -0.169726 12.0778 -0.169726 11.376 0.509185L4.50595 7.3876L3.06964 5.94954C2.35013 5.25363 1.20362 5.27357 0.508559 5.99396C-0.169522 6.69668 -0.169522 7.81104 0.508559 8.51375L3.22541 11.2339C3.93269 11.9419 5.07921 11.9419 5.78649 11.2339L13.937 3.0734C14.6321 2.35301 14.6122 1.20487 13.8927 0.509185Z" transform="translate(67.0376 79.8145)" fill="#2F80ED"/>
</svg>
