<svg width="18" height="19" viewBox="0 0 18 19" fill="none" xmlns="http://www.w3.org/2000/svg">
<path d="M14.5824 12.2064C13.4841 12.2064 12.5048 12.7272 11.8784 13.532L6.63304 10.6165C6.75595 10.2654 6.82335 9.88663 6.82335 9.49605C6.82335 9.10154 6.75595 8.72674 6.62907 8.37168L11.8705 5.46013C12.493 6.2689 13.4762 6.7936 14.5784 6.7936C16.4577 6.7936 17.9921 5.27076 17.9921 3.3968C17.9921 1.52284 16.4617 0 14.5784 0C12.6952 0 11.1648 1.52284 11.1648 3.3968C11.1648 3.79132 11.2322 4.17006 11.359 4.52118L6.12159 7.43272C5.49912 6.62002 4.51586 6.09925 3.41366 6.09925C1.53436 6.09925 7.56218e-09 7.62209 7.56218e-09 9.49605C7.56218e-09 11.37 1.53436 12.8929 3.41762 12.8929C4.51982 12.8929 5.50308 12.3681 6.12952 11.5554L11.3709 14.4709C11.2441 14.826 11.1727 15.2087 11.1727 15.6032C11.1727 17.4732 12.7031 19 14.5863 19C16.4696 19 18 17.4772 18 15.6032C18 13.7292 16.4656 12.2064 14.5824 12.2064ZM14.5824 1.06914C15.8749 1.06914 16.9256 2.11462 16.9256 3.40075C16.9256 4.68688 15.8749 5.73235 14.5824 5.73235C13.2899 5.73235 12.2392 4.68688 12.2392 3.40075C12.2392 2.11462 13.2938 1.06914 14.5824 1.06914ZM3.41762 11.8277C2.12511 11.8277 1.07445 10.7822 1.07445 9.49605C1.07445 8.20992 2.12511 7.16445 3.41762 7.16445C4.71013 7.16445 5.76079 8.20992 5.76079 9.49605C5.76079 10.7822 4.70617 11.8277 3.41762 11.8277ZM14.5824 17.9309C13.2899 17.9309 12.2392 16.8854 12.2392 15.5993C12.2392 14.3131 13.2899 13.2676 14.5824 13.2676C15.8749 13.2676 16.9256 14.3131 16.9256 15.5993C16.9256 16.8854 15.8749 17.9309 14.5824 17.9309Z" fill="black" fill-opacity="0.6"/>
</svg>
