<svg width="19" height="15" viewBox="0 0 19 15" fill="none" xmlns="http://www.w3.org/2000/svg">
<path d="M5.12473 14.5687C5.69436 15.1438 6.61903 15.1438 7.18866 14.5687L14.2544 7.4361C14.4573 7.2313 14.6134 6.98711 14.7148 6.72717C15.4249 6.92803 16.1155 7.03437 16.7241 7.03044C18.2301 7.02256 18.7295 6.35695 18.8934 5.95916C19.0573 5.56531 19.1743 4.73823 18.117 3.6512C18.1053 3.63938 18.0936 3.62757 18.0819 3.61575C17.4264 2.95408 16.4744 2.34361 15.3937 1.89069C15.1947 1.80798 14.9957 1.73315 14.8006 1.66225V1.65044C14.7889 0.77609 14.0906 0.0710971 13.2244 0.0592815L8.99119 0.000203968C8.42937 -0.00767304 7.89095 0.212883 7.49689 0.614611L0.427223 7.74724C-0.142408 8.32226 -0.142408 9.25569 0.427223 9.83071L5.12473 14.5687ZM10.5713 2.55236C11.0434 2.0758 11.8081 2.0758 12.2802 2.55236C12.5611 2.83593 12.6743 3.22584 12.6197 3.59212C13.084 3.92296 13.638 4.23016 14.231 4.47828C14.4417 4.56493 14.6446 4.6437 14.8397 4.71066L14.8163 2.99347C14.8514 3.00922 14.8826 3.02104 14.9177 3.03679C15.8424 3.4267 16.6734 3.95446 17.2079 4.49404C17.2157 4.50192 17.2235 4.50979 17.2313 4.51767C17.7385 5.04149 17.7932 5.37626 17.7502 5.47866C17.6176 5.79768 16.1935 6.08126 14.032 5.17146C13.4 4.90364 12.8069 4.57281 12.327 4.2144C12.3114 4.2341 12.2919 4.25379 12.2763 4.27348C11.8042 4.75004 11.0395 4.75004 10.5674 4.27348C10.0992 3.80086 10.0992 3.02891 10.5713 2.55236Z" fill="#006DF0"/>
</svg>
